<svg width="25" height="25" viewBox="0 0 25 25" fill="none" xmlns="http://www.w3.org/2000/svg">
<path d="M22.1807 20.1797C22.1807 20.3786 22.1016 20.5694 21.961 20.71C21.8203 20.8507 21.6296 20.9297 21.4307 20.9297H3.43066C3.23175 20.9297 3.04099 20.8507 2.90033 20.71C2.75968 20.5694 2.68066 20.3786 2.68066 20.1797C2.68066 19.9808 2.75968 19.79 2.90033 19.6494C3.04099 19.5087 3.23175 19.4297 3.43066 19.4297H4.18066V13.4297C4.18066 13.2308 4.25968 13.04 4.40033 12.8994C4.54099 12.7587 4.73175 12.6797 4.93066 12.6797H7.18066C7.37958 12.6797 7.57034 12.7587 7.71099 12.8994C7.85165 13.04 7.93066 13.2308 7.93066 13.4297V19.4297H9.43066V8.92969C9.43066 8.73078 9.50968 8.54001 9.65033 8.39936C9.79099 8.25871 9.98175 8.17969 10.1807 8.17969H13.1807C13.3796 8.17969 13.5703 8.25871 13.711 8.39936C13.8516 8.54001 13.9307 8.73078 13.9307 8.92969V19.4297H15.4307V4.42969C15.4307 4.23078 15.5097 4.04001 15.6503 3.89936C15.791 3.75871 15.9818 3.67969 16.1807 3.67969H19.9307C20.1296 3.67969 20.3203 3.75871 20.461 3.89936C20.6016 4.04001 20.6807 4.23078 20.6807 4.42969V19.4297H21.4307C21.6296 19.4297 21.8203 19.5087 21.961 19.6494C22.1016 19.79 22.1807 19.9808 22.1807 20.1797Z" fill="white" fill-opacity="0.7"/>
</svg>
