<svg width="25" height="25" viewBox="0 0 25 25" fill="none" xmlns="http://www.w3.org/2000/svg">
<path d="M20.9746 6.62891H5.97461C5.7757 6.62891 5.58493 6.54989 5.44428 6.40924C5.30363 6.26858 5.22461 6.07782 5.22461 5.87891C5.22461 5.67999 5.30363 5.48923 5.44428 5.34858C5.58493 5.20792 5.7757 5.12891 5.97461 5.12891H18.7246C18.9235 5.12891 19.1143 5.04989 19.2549 4.90924C19.3956 4.76858 19.4746 4.57782 19.4746 4.37891C19.4746 4.17999 19.3956 3.98923 19.2549 3.84858C19.1143 3.70792 18.9235 3.62891 18.7246 3.62891H5.97461C5.37787 3.62891 4.80558 3.86596 4.38362 4.28792C3.96166 4.70987 3.72461 5.28217 3.72461 5.87891V17.8789C3.72461 18.4756 3.96166 19.0479 4.38362 19.4699C4.80558 19.8919 5.37787 20.1289 5.97461 20.1289H20.9746C21.3724 20.1289 21.754 19.9709 22.0353 19.6896C22.3166 19.4083 22.4746 19.0267 22.4746 18.6289V8.12891C22.4746 7.73108 22.3166 7.34955 22.0353 7.06825C21.754 6.78694 21.3724 6.62891 20.9746 6.62891ZM17.5996 14.1289C17.3771 14.1289 17.1596 14.0629 16.9746 13.9393C16.7896 13.8157 16.6454 13.64 16.5602 13.4344C16.4751 13.2289 16.4528 13.0027 16.4962 12.7844C16.5396 12.5662 16.6468 12.3657 16.8041 12.2084C16.9614 12.0511 17.1619 11.9439 17.3801 11.9005C17.5984 11.8571 17.8246 11.8794 18.0301 11.9645C18.2357 12.0497 18.4114 12.1939 18.535 12.3789C18.6586 12.5639 18.7246 12.7814 18.7246 13.0039C18.7246 13.3023 18.6061 13.5884 18.3951 13.7994C18.1841 14.0104 17.898 14.1289 17.5996 14.1289Z" fill="#273E8E"/>
</svg>
