<svg width="25" height="25" viewBox="0 0 25 25" fill="none" xmlns="http://www.w3.org/2000/svg">
<path d="M20.9746 6.62793H5.97461C5.7757 6.62793 5.58493 6.54891 5.44428 6.40826C5.30363 6.26761 5.22461 6.07684 5.22461 5.87793C5.22461 5.67902 5.30363 5.48825 5.44428 5.3476C5.58493 5.20695 5.7757 5.12793 5.97461 5.12793H18.7246C18.9235 5.12793 19.1143 5.04891 19.2549 4.90826C19.3956 4.76761 19.4746 4.57684 19.4746 4.37793C19.4746 4.17902 19.3956 3.98825 19.2549 3.8476C19.1143 3.70695 18.9235 3.62793 18.7246 3.62793H5.97461C5.37787 3.62793 4.80558 3.86498 4.38362 4.28694C3.96166 4.7089 3.72461 5.28119 3.72461 5.87793V17.8779C3.72461 18.4747 3.96166 19.047 4.38362 19.4689C4.80558 19.8909 5.37787 20.1279 5.97461 20.1279H20.9746C21.3724 20.1279 21.754 19.9699 22.0353 19.6886C22.3166 19.4073 22.4746 19.0258 22.4746 18.6279V8.12793C22.4746 7.7301 22.3166 7.34857 22.0353 7.06727C21.754 6.78597 21.3724 6.62793 20.9746 6.62793ZM17.5996 14.1279C17.3771 14.1279 17.1596 14.0619 16.9746 13.9383C16.7896 13.8147 16.6454 13.639 16.5602 13.4334C16.4751 13.2279 16.4528 13.0017 16.4962 12.7835C16.5396 12.5652 16.6468 12.3648 16.8041 12.2074C16.9614 12.0501 17.1619 11.943 17.3801 11.8995C17.5984 11.8561 17.8246 11.8784 18.0301 11.9636C18.2357 12.0487 18.4114 12.1929 18.535 12.3779C18.6586 12.5629 18.7246 12.7804 18.7246 13.0029C18.7246 13.3013 18.6061 13.5874 18.3951 13.7984C18.1841 14.0094 17.898 14.1279 17.5996 14.1279Z" fill="white" fill-opacity="0.7"/>
</svg>
