<svg width="40" height="40" viewBox="0 0 40 40" fill="none" xmlns="http://www.w3.org/2000/svg">
<path d="M16.3604 33.7178C16.3604 34.1999 16.2174 34.6711 15.9496 35.072C15.6817 35.4728 15.301 35.7852 14.8556 35.9697C14.4102 36.1542 13.9201 36.2025 13.4473 36.1084C12.9745 36.0144 12.5402 35.7822 12.1993 35.4413C11.8584 35.1005 11.6262 34.6661 11.5322 34.1933C11.4381 33.7205 11.4864 33.2304 11.6709 32.785C11.8554 32.3396 12.1678 31.9589 12.5686 31.6911C12.9695 31.4232 13.4408 31.2803 13.9229 31.2803C14.5693 31.2803 15.1893 31.5371 15.6464 31.9942C16.1035 32.4513 16.3604 33.0713 16.3604 33.7178ZM29.7666 31.2803C29.2845 31.2803 28.8132 31.4232 28.4124 31.6911C28.0116 31.9589 27.6991 32.3396 27.5146 32.785C27.3302 33.2304 27.2819 33.7205 27.3759 34.1933C27.47 34.6661 27.7021 35.1005 28.043 35.4413C28.3839 35.7822 28.8182 36.0144 29.2911 36.1084C29.7639 36.2025 30.254 36.1542 30.6994 35.9697C31.1448 35.7852 31.5255 35.4728 31.7933 35.072C32.0611 34.6711 32.2041 34.1999 32.2041 33.7178C32.2041 33.0713 31.9473 32.4513 31.4902 31.9942C31.0331 31.5371 30.4131 31.2803 29.7666 31.2803ZM37.0349 12.1063L33.1288 26.1646C32.9141 26.9325 32.4547 27.6095 31.8205 28.0928C31.1862 28.5761 30.4117 28.8394 29.6143 28.8428H14.5566C13.7568 28.8424 12.9792 28.5805 12.3421 28.0969C11.7051 27.6134 11.2437 26.9348 11.0283 26.1646L5.6841 6.90527H2.9541C2.63087 6.90527 2.32088 6.77687 2.09232 6.54831C1.86376 6.31975 1.73535 6.00976 1.73535 5.68652C1.73535 5.36329 1.86376 5.0533 2.09232 4.82474C2.32088 4.59618 2.63087 4.46777 2.9541 4.46777H6.61035C6.8768 4.46772 7.13593 4.55499 7.34806 4.71622C7.5602 4.87746 7.71365 5.10377 7.78492 5.36051L9.22914 10.5615H35.8604C36.0482 10.5615 36.2336 10.6049 36.4019 10.6883C36.5703 10.7718 36.717 10.893 36.8307 11.0426C36.9445 11.1922 37.0221 11.366 37.0575 11.5505C37.0929 11.735 37.0852 11.9252 37.0349 12.1063ZM34.2562 12.999H9.90707L13.382 25.5125C13.4533 25.7693 13.6068 25.9956 13.8189 26.1568C14.031 26.3181 14.2902 26.4053 14.5566 26.4053H29.6143C29.8807 26.4053 30.1398 26.3181 30.352 26.1568C30.5641 25.9956 30.7176 25.7693 30.7888 25.5125L34.2562 12.999Z" fill="#800080"/>
</svg>
