<svg width="40" height="40" viewBox="0 0 40 40" fill="none" xmlns="http://www.w3.org/2000/svg">
<g clip-path="url(#clip0_28_5745)">
<path d="M18.1076 24.4349C19.736 23.3508 20.9723 21.7714 21.6336 19.9303C22.295 18.0892 22.3464 16.0842 21.7801 14.2117C21.2138 12.3392 20.0599 10.6986 18.4891 9.53262C16.9183 8.36661 15.014 7.73706 13.0577 7.73706C11.1014 7.73706 9.19711 8.36661 7.62631 9.53262C6.05552 10.6986 4.90166 12.3392 4.33536 14.2117C3.76907 16.0842 3.8204 18.0892 4.48178 19.9303C5.14316 21.7714 6.37946 23.3508 8.00787 24.4349C5.06224 25.5205 2.5466 27.5295 0.836328 30.1621C0.746442 30.2957 0.684007 30.4458 0.652653 30.6037C0.621298 30.7617 0.621649 30.9243 0.653685 31.0821C0.685722 31.2399 0.748804 31.3897 0.839267 31.5229C0.929729 31.6561 1.04577 31.77 1.18063 31.858C1.3155 31.9459 1.46651 32.0062 1.62488 32.0353C1.78324 32.0644 1.94582 32.0617 2.10314 32.0274C2.26047 31.9932 2.40941 31.9279 2.54131 31.8356C2.6732 31.7432 2.78543 31.6256 2.87145 31.4895C3.97466 29.7927 5.48425 28.3984 7.26313 27.4331C9.04201 26.4679 11.0338 25.9623 13.0577 25.9623C15.0816 25.9623 17.0734 26.4679 18.8523 27.4331C20.6312 28.3984 22.1408 29.7927 23.244 31.4895C23.4222 31.7543 23.6975 31.9384 24.0103 32.0019C24.3231 32.0654 24.6484 32.0033 24.9158 31.8289C25.1832 31.6545 25.3712 31.3818 25.4392 31.0699C25.5071 30.758 25.4496 30.4319 25.2791 30.1621C23.5688 27.5295 21.0532 25.5205 18.1076 24.4349ZM6.37521 16.8533C6.37521 15.5316 6.76713 14.2396 7.50141 13.1407C8.2357 12.0417 9.27936 11.1852 10.5004 10.6794C11.7215 10.1737 13.0651 10.0413 14.3614 10.2992C15.6577 10.557 16.8484 11.1935 17.783 12.128C18.7175 13.0626 19.354 14.2533 19.6118 15.5496C19.8697 16.8458 19.7373 18.1895 19.2315 19.4105C18.7258 20.6316 17.8692 21.6753 16.7703 22.4096C15.6714 23.1438 14.3794 23.5358 13.0577 23.5358C11.286 23.5337 9.58747 22.8291 8.33469 21.5763C7.08191 20.3235 6.37722 18.6249 6.37521 16.8533ZM38.2902 31.8433C38.0203 32.0193 37.6916 32.0809 37.3763 32.0145C37.061 31.9482 36.785 31.7593 36.609 31.4895C35.5071 29.7917 33.9977 28.3968 32.2184 27.4319C30.4392 26.4671 28.4467 25.963 26.4227 25.9658C26.1005 25.9658 25.7914 25.8377 25.5636 25.6099C25.3357 25.382 25.2077 25.073 25.2077 24.7508C25.2077 24.4285 25.3357 24.1195 25.5636 23.8916C25.7914 23.6638 26.1005 23.5358 26.4227 23.5358C27.4068 23.5348 28.3786 23.3166 29.2685 22.8965C30.1585 22.4765 30.9447 21.8651 31.571 21.106C32.1973 20.3469 32.6482 19.4589 32.8915 18.5053C33.1348 17.5518 33.1644 16.5562 32.9784 15.5899C32.7923 14.6235 32.3952 13.7102 31.8152 12.9151C31.2353 12.1201 30.4869 11.4629 29.6235 10.9906C28.7601 10.5183 27.8031 10.2426 26.8208 10.183C25.8385 10.1235 24.8552 10.2816 23.9411 10.6461C23.792 10.7106 23.6316 10.7445 23.4692 10.7458C23.3069 10.7472 23.1459 10.716 22.9958 10.6541C22.8457 10.5922 22.7095 10.5009 22.5953 10.3854C22.4811 10.27 22.3912 10.1329 22.3309 9.98211C22.2706 9.83136 22.2411 9.67004 22.2442 9.5077C22.2473 9.34536 22.2829 9.18529 22.3489 9.03694C22.4149 8.88859 22.51 8.75498 22.6285 8.644C22.747 8.53301 22.8866 8.44691 23.0389 8.39078C25.131 7.55646 27.4578 7.52644 29.5707 8.3065C31.6835 9.08657 33.4326 10.6215 34.4806 12.6151C35.5285 14.6087 35.8011 16.9197 35.2456 19.1024C34.6901 21.2851 33.346 23.1847 31.4726 24.4349C34.4182 25.5205 36.9338 27.5295 38.6441 30.1621C38.8201 30.4319 38.8817 30.7607 38.8153 31.076C38.7489 31.3913 38.5601 31.6673 38.2902 31.8433Z" fill="#0000FF"/>
</g>
<defs>
<clipPath id="clip0_28_5745">
<rect width="38.88" height="38.88" fill="white" transform="translate(0.300293 0.450684)"/>
</clipPath>
</defs>
</svg>
