<svg width="40" height="40" viewBox="0 0 40 40" fill="none" xmlns="http://www.w3.org/2000/svg">
<path d="M20.3877 13.9001C19.1825 13.9001 18.0043 14.2575 17.0022 14.9271C16.0001 15.5967 15.219 16.5484 14.7578 17.6619C14.2966 18.7754 14.1759 20.0007 14.411 21.1827C14.6462 22.3648 15.2265 23.4506 16.0788 24.3028C16.931 25.1551 18.0168 25.7354 19.1989 25.9706C20.3809 26.2057 21.6062 26.085 22.7197 25.6238C23.8332 25.1626 24.7849 24.3815 25.4545 23.3794C26.1241 22.3773 26.4814 21.1991 26.4814 19.9939C26.4814 18.3777 25.8394 16.8278 24.6966 15.685C23.5538 14.5422 22.0039 13.9001 20.3877 13.9001ZM20.3877 23.6501C19.6646 23.6501 18.9577 23.4357 18.3564 23.034C17.7551 22.6322 17.2865 22.0612 17.0098 21.3931C16.733 20.725 16.6606 19.9898 16.8017 19.2806C16.9428 18.5714 17.291 17.9199 17.8023 17.4085C18.3137 16.8972 18.9652 16.549 19.6744 16.4079C20.3836 16.2668 21.1188 16.3392 21.7869 16.616C22.455 16.8927 23.026 17.3613 23.4278 17.9626C23.8295 18.5639 24.0439 19.2708 24.0439 19.9939C24.0439 20.9636 23.6587 21.8936 22.9731 22.5793C22.2874 23.2649 21.3574 23.6501 20.3877 23.6501ZM37.4502 9.02515H3.3252C3.00196 9.02515 2.69197 9.15355 2.46341 9.38211C2.23485 9.61067 2.10645 9.92066 2.10645 10.2439V29.7439C2.10645 30.0671 2.23485 30.3771 2.46341 30.6057C2.69197 30.8342 3.00196 30.9626 3.3252 30.9626H37.4502C37.7734 30.9626 38.0834 30.8342 38.312 30.6057C38.5405 30.3771 38.6689 30.0671 38.6689 29.7439V10.2439C38.6689 9.92066 38.5405 9.61067 38.312 9.38211C38.0834 9.15355 37.7734 9.02515 37.4502 9.02515ZM30.3891 28.5251H10.3863C9.97714 27.1413 9.22822 25.8817 8.20779 24.8613C7.18735 23.8409 5.92783 23.092 4.54395 22.6828V17.305C5.92783 16.8958 7.18735 16.1469 8.20779 15.1265C9.22822 14.1061 9.97714 12.8465 10.3863 11.4626H30.3891C30.7982 12.8465 31.5472 14.1061 32.5676 15.1265C33.588 16.1469 34.8476 16.8958 36.2314 17.305V22.6828C34.8476 23.092 33.588 23.8409 32.5676 24.8613C31.5472 25.8817 30.7982 27.1413 30.3891 28.5251ZM36.2314 14.7182C34.7696 14.0897 33.6044 12.9245 32.9759 11.4626H36.2314V14.7182ZM7.79953 11.4626C7.17095 12.9245 6.00578 14.0897 4.54395 14.7182V11.4626H7.79953ZM4.54395 25.2696C6.00578 25.8981 7.17095 27.0633 7.79953 28.5251H4.54395V25.2696ZM32.9759 28.5251C33.6044 27.0633 34.7696 25.8981 36.2314 25.2696V28.5251H32.9759Z" fill="#008000"/>
</svg>
