<svg width="39" height="39" viewBox="0 0 39 39" fill="none" xmlns="http://www.w3.org/2000/svg">
<path d="M31.6875 7.3125H7.3125C6.3428 7.3125 5.41282 7.69771 4.72714 8.38339C4.04146 9.06907 3.65625 9.99905 3.65625 10.9688V28.0312C3.65625 29.0009 4.04146 29.9309 4.72714 30.6166C5.41282 31.3023 6.3428 31.6875 7.3125 31.6875H31.6875C32.6572 31.6875 33.5872 31.3023 34.2729 30.6166C34.9585 29.9309 35.3438 29.0009 35.3438 28.0312V10.9688C35.3438 9.99905 34.9585 9.06907 34.2729 8.38339C33.5872 7.69771 32.6572 7.3125 31.6875 7.3125ZM6.09375 14.625H32.9062V17.0625H24.375C24.0518 17.0625 23.7418 17.1909 23.5132 17.4195C23.2847 17.648 23.1562 17.958 23.1562 18.2812C23.1562 19.2509 22.771 20.1809 22.0854 20.8666C21.3997 21.5523 20.4697 21.9375 19.5 21.9375C18.5303 21.9375 17.6003 21.5523 16.9146 20.8666C16.229 20.1809 15.8438 19.2509 15.8438 18.2812C15.8438 17.958 15.7153 17.648 15.4868 17.4195C15.2582 17.1909 14.9482 17.0625 14.625 17.0625H6.09375V14.625ZM7.3125 9.75H31.6875C32.0107 9.75 32.3207 9.8784 32.5493 10.107C32.7778 10.3355 32.9062 10.6455 32.9062 10.9688V12.1875H6.09375V10.9688C6.09375 10.6455 6.22215 10.3355 6.45071 10.107C6.67927 9.8784 6.98927 9.75 7.3125 9.75ZM31.6875 29.25H7.3125C6.98927 29.25 6.67927 29.1216 6.45071 28.893C6.22215 28.6645 6.09375 28.3545 6.09375 28.0312V19.5H13.5281C13.8078 20.8775 14.5552 22.116 15.6436 23.0056C16.7319 23.8952 18.0943 24.3811 19.5 24.3811C20.9057 24.3811 22.2681 23.8952 23.3564 23.0056C24.4448 22.116 25.1922 20.8775 25.4719 19.5H32.9062V28.0312C32.9062 28.3545 32.7778 28.6645 32.5493 28.893C32.3207 29.1216 32.0107 29.25 31.6875 29.25Z" fill="#FF0000"/>
</svg>
