<svg width="25" height="25" viewBox="0 0 25 25" fill="none" xmlns="http://www.w3.org/2000/svg">
<path d="M22.5195 14.537V16.787C22.5195 17.1848 22.3615 17.5664 22.0802 17.8477C21.7989 18.129 21.4174 18.287 21.0195 18.287H10.888C10.8188 18.2871 10.751 18.268 10.692 18.2319C10.633 18.1958 10.5851 18.1441 10.5536 18.0825C10.5222 18.0208 10.5084 17.9517 10.5138 17.8828C10.5192 17.8138 10.5436 17.7477 10.5842 17.6917L16.3573 9.75577C16.477 9.59682 16.5305 9.39771 16.5065 9.20021C16.4826 9.0027 16.3831 8.82214 16.2289 8.69639C16.1496 8.63485 16.0587 8.58986 15.9617 8.56409C15.8646 8.53831 15.7634 8.53229 15.664 8.54636C15.5646 8.56044 15.469 8.59433 15.383 8.64603C15.2969 8.69773 15.2221 8.76618 15.163 8.84733L8.41297 18.1342C8.37759 18.1823 8.33122 18.2213 8.27774 18.2479C8.22425 18.2745 8.16519 18.2879 8.10547 18.287H3.01953C2.62171 18.287 2.24018 18.129 1.95887 17.8477C1.67757 17.5664 1.51953 17.1848 1.51953 16.787V14.643C1.51953 14.4751 1.51953 14.3083 1.53172 14.1433C1.53653 14.0471 1.57816 13.9565 1.64797 13.8901C1.71778 13.8238 1.81043 13.7869 1.90672 13.787H4.51953C4.62235 13.7872 4.72411 13.7663 4.8185 13.7256C4.91289 13.6848 4.9979 13.6251 5.06823 13.5501C5.13857 13.4751 5.19273 13.3864 5.22736 13.2896C5.26199 13.1928 5.27634 13.0899 5.26953 12.9873C5.25294 12.7941 5.1637 12.6144 5.01981 12.4845C4.87592 12.3545 4.68809 12.2839 4.49422 12.287H2.26203C2.20482 12.287 2.14838 12.2738 2.09703 12.2486C2.04568 12.2234 2.00078 12.1868 1.96576 12.1415C1.93075 12.0963 1.90654 12.0437 1.89501 11.9876C1.88348 11.9316 1.88492 11.8737 1.89922 11.8183C3.02422 7.70827 6.55484 4.58733 10.8542 4.10452C10.9067 4.09884 10.9599 4.10432 11.0101 4.1206C11.0604 4.13689 11.1066 4.16361 11.1459 4.19902C11.1851 4.23442 11.2163 4.27771 11.2377 4.32605C11.259 4.37439 11.2698 4.42669 11.2695 4.47952V7.03702C11.2693 7.13983 11.2902 7.2416 11.331 7.33599C11.3717 7.43038 11.4315 7.51538 11.5065 7.58572C11.5815 7.65605 11.6701 7.71022 11.7669 7.74485C11.8637 7.77948 11.9666 7.79383 12.0692 7.78702C12.2624 7.77043 12.4421 7.68119 12.5721 7.5373C12.7021 7.39341 12.7726 7.20558 12.7695 7.01171V4.47483C12.7692 4.422 12.7801 4.3697 12.8014 4.32136C12.8227 4.27302 12.854 4.22973 12.8932 4.19433C12.9324 4.15892 12.9787 4.1322 13.0289 4.11592C13.0792 4.09963 13.1323 4.09415 13.1848 4.09983C15.2838 4.3357 17.2632 5.19812 18.8651 6.5748C20.467 7.95148 21.6173 9.77862 22.1661 11.8183C22.1804 11.8737 22.1818 11.9317 22.1703 11.9879C22.1587 12.044 22.1344 12.0967 22.0993 12.1419C22.0641 12.1872 22.0191 12.2238 21.9676 12.2489C21.9162 12.2741 21.8596 12.2871 21.8023 12.287H19.5448C19.3513 12.2844 19.1639 12.3552 19.0204 12.4851C18.8769 12.615 18.788 12.7945 18.7714 12.9873C18.7646 13.0899 18.7789 13.1928 18.8136 13.2896C18.8482 13.3864 18.9024 13.4751 18.9727 13.5501C19.043 13.6251 19.128 13.6848 19.2224 13.7256C19.3168 13.7663 19.4186 13.7872 19.5214 13.787H22.1389C22.2361 13.787 22.3296 13.8247 22.3995 13.8922C22.4695 13.9597 22.5105 14.0517 22.5139 14.1489C22.5195 14.2773 22.5195 14.4067 22.5195 14.537Z" fill="white" fill-opacity="0.7"/>
</svg>
