<svg width="25" height="25" viewBox="0 0 25 25" fill="none" xmlns="http://www.w3.org/2000/svg">
<path d="M22.5195 14.5331V16.7831C22.5195 17.1809 22.3615 17.5625 22.0802 17.8438C21.7989 18.1251 21.4174 18.2831 21.0195 18.2831H10.888C10.8188 18.2832 10.751 18.2641 10.692 18.228C10.633 18.1919 10.5851 18.1402 10.5536 18.0785C10.5222 18.0169 10.5084 17.9478 10.5138 17.8789C10.5192 17.8099 10.5436 17.7438 10.5842 17.6878L16.3573 9.75186C16.477 9.59291 16.5305 9.39381 16.5065 9.1963C16.4826 8.9988 16.3831 8.81823 16.2289 8.69249C16.1496 8.63094 16.0587 8.58595 15.9617 8.56018C15.8646 8.53441 15.7634 8.52838 15.664 8.54246C15.5646 8.55653 15.469 8.59043 15.383 8.64213C15.2969 8.69382 15.2221 8.76228 15.163 8.84342L8.41297 18.1303C8.37759 18.1784 8.33122 18.2174 8.27774 18.244C8.22425 18.2705 8.16519 18.284 8.10547 18.2831H3.01953C2.62171 18.2831 2.24018 18.1251 1.95887 17.8438C1.67757 17.5625 1.51953 17.1809 1.51953 16.7831V14.639C1.51953 14.4712 1.51953 14.3044 1.53172 14.1394C1.53653 14.0432 1.57816 13.9526 1.64797 13.8862C1.71778 13.8199 1.81043 13.783 1.90672 13.7831H4.51953C4.62235 13.7833 4.72411 13.7624 4.8185 13.7217C4.91289 13.6809 4.9979 13.6212 5.06823 13.5462C5.13857 13.4712 5.19273 13.3825 5.22736 13.2857C5.26199 13.1889 5.27634 13.086 5.26953 12.9834C5.25294 12.7902 5.1637 12.6105 5.01981 12.4806C4.87592 12.3506 4.68809 12.28 4.49422 12.2831H2.26203C2.20482 12.2831 2.14838 12.2699 2.09703 12.2447C2.04568 12.2195 2.00078 12.1829 1.96576 12.1376C1.93075 12.0924 1.90654 12.0397 1.89501 11.9837C1.88348 11.9277 1.88492 11.8698 1.89922 11.8144C3.02422 7.70436 6.55484 4.58342 10.8542 4.10061C10.9067 4.09493 10.9599 4.10041 11.0101 4.1167C11.0604 4.13298 11.1066 4.1597 11.1459 4.19511C11.1851 4.23051 11.2163 4.2738 11.2377 4.32214C11.259 4.37048 11.2698 4.42278 11.2695 4.47561V7.03311C11.2693 7.13593 11.2902 7.23769 11.331 7.33208C11.3717 7.42647 11.4315 7.51148 11.5065 7.58181C11.5815 7.65215 11.6701 7.70631 11.7669 7.74094C11.8637 7.77557 11.9666 7.78992 12.0692 7.78311C12.2624 7.76652 12.4421 7.67728 12.5721 7.53339C12.7021 7.3895 12.7726 7.20167 12.7695 7.0078V4.47092C12.7692 4.41809 12.7801 4.3658 12.8014 4.31746C12.8227 4.26912 12.854 4.22583 12.8932 4.19042C12.9324 4.15502 12.9787 4.1283 13.0289 4.11201C13.0792 4.09573 13.1323 4.09024 13.1848 4.09592C15.2838 4.33179 17.2632 5.19422 18.8651 6.5709C20.467 7.94758 21.6173 9.77471 22.1661 11.8144C22.1804 11.8698 22.1818 11.9278 22.1703 11.9839C22.1587 12.04 22.1344 12.0928 22.0993 12.138C22.0641 12.1833 22.0191 12.2199 21.9676 12.245C21.9162 12.2702 21.8596 12.2832 21.8023 12.2831H19.5448C19.3513 12.2805 19.1639 12.3513 19.0204 12.4812C18.8769 12.6111 18.788 12.7906 18.7714 12.9834C18.7646 13.086 18.7789 13.1889 18.8136 13.2857C18.8482 13.3825 18.9024 13.4712 18.9727 13.5462C19.043 13.6212 19.128 13.6809 19.2224 13.7217C19.3168 13.7624 19.4186 13.7833 19.5214 13.7831H22.1389C22.2361 13.7831 22.3296 13.8208 22.3995 13.8883C22.4695 13.9558 22.5105 14.0478 22.5139 14.145C22.5195 14.2734 22.5195 14.4028 22.5195 14.5331Z" fill="#273E8E"/>
</svg>
