<svg width="22" height="15" viewBox="0 0 22 15" fill="none" xmlns="http://www.w3.org/2000/svg">
<path d="M21.5195 10.5336V12.7836C21.5195 13.1814 21.3615 13.563 21.0802 13.8443C20.7989 14.1256 20.4174 14.2836 20.0195 14.2836H9.88797C9.8188 14.2837 9.75096 14.2646 9.69196 14.2285C9.63295 14.1924 9.58508 14.1407 9.55365 14.079C9.52221 14.0174 9.50842 13.9483 9.51382 13.8793C9.51922 13.8104 9.54358 13.7443 9.58422 13.6883L15.3573 5.75235C15.477 5.5934 15.5305 5.3943 15.5065 5.19679C15.4826 4.99928 15.3831 4.81872 15.2289 4.69297C15.1496 4.63143 15.0587 4.58644 14.9617 4.56067C14.8646 4.5349 14.7634 4.52887 14.664 4.54295C14.5646 4.55702 14.469 4.59091 14.383 4.64261C14.2969 4.69431 14.2221 4.76276 14.163 4.84391L7.41297 14.1308C7.37759 14.1789 7.33122 14.2179 7.27774 14.2445C7.22425 14.271 7.16519 14.2845 7.10547 14.2836H2.01953C1.62171 14.2836 1.24018 14.1256 0.958871 13.8443C0.677566 13.563 0.519531 13.1814 0.519531 12.7836V10.6395C0.519531 10.4717 0.519531 10.3048 0.531719 10.1398C0.536533 10.0437 0.578158 9.95305 0.647969 9.88673C0.71778 9.82041 0.810427 9.78348 0.906719 9.7836H3.51953C3.62235 9.78383 3.72411 9.76291 3.8185 9.72215C3.91289 9.68139 3.9979 9.62166 4.06823 9.54666C4.13857 9.47167 4.19273 9.38302 4.22736 9.28621C4.26199 9.1894 4.27634 9.0865 4.26953 8.98391C4.25294 8.79072 4.1637 8.61102 4.01981 8.48105C3.87592 8.35108 3.68809 8.28052 3.49422 8.2836H1.26203C1.20482 8.28356 1.14838 8.27043 1.09703 8.24521C1.04568 8.22 1.00078 8.18337 0.965762 8.13813C0.930746 8.09289 0.906545 8.04024 0.895011 7.9842C0.883477 7.92817 0.884917 7.87024 0.899219 7.81485C2.02422 3.70485 5.55484 0.583912 9.85422 0.1011C9.90674 0.0954197 9.95987 0.100902 10.0101 0.117187C10.0604 0.133472 10.1066 0.160192 10.1459 0.195597C10.1851 0.231002 10.2163 0.274293 10.2377 0.322633C10.259 0.370973 10.2698 0.42327 10.2695 0.4761V3.0336C10.2693 3.13642 10.2902 3.23818 10.331 3.33257C10.3717 3.42696 10.4315 3.51197 10.5065 3.5823C10.5815 3.65263 10.6701 3.7068 10.7669 3.74143C10.8637 3.77606 10.9666 3.79041 11.0692 3.7836C11.2624 3.76701 11.4421 3.67777 11.5721 3.53388C11.7021 3.38999 11.7726 3.20216 11.7695 3.00829V0.471412C11.7692 0.418583 11.7801 0.366285 11.8014 0.317945C11.8227 0.269606 11.854 0.226315 11.8932 0.190909C11.9324 0.155504 11.9787 0.128784 12.0289 0.112499C12.0792 0.0962142 12.1323 0.0907319 12.1848 0.096412C14.2838 0.332277 16.2632 1.19471 17.8651 2.57138C19.467 3.94806 20.6173 5.7752 21.1661 7.81485C21.1804 7.87032 21.1818 7.92833 21.1703 7.98443C21.1587 8.04054 21.1344 8.09324 21.0993 8.1385C21.0641 8.18376 21.0191 8.22037 20.9676 8.24552C20.9162 8.27067 20.8596 8.2837 20.8023 8.2836H18.5448C18.3513 8.28099 18.1639 8.35177 18.0204 8.48169C17.8769 8.61162 17.788 8.79105 17.7714 8.98391C17.7646 9.0865 17.7789 9.1894 17.8136 9.28621C17.8482 9.38302 17.9024 9.47167 17.9727 9.54666C18.043 9.62166 18.128 9.68139 18.2224 9.72215C18.3168 9.76291 18.4186 9.78383 18.5214 9.7836H21.1389C21.2361 9.78354 21.3296 9.82124 21.3995 9.88875C21.4695 9.95627 21.5105 10.0483 21.5139 10.1455C21.5195 10.2739 21.5195 10.4033 21.5195 10.5336Z" fill="white" fill-opacity="0.7"/>
</svg>
