<svg width="33" height="33" viewBox="0 0 33 33" fill="none" xmlns="http://www.w3.org/2000/svg">
<path d="M16.7061 2.21875H18.4592V5.57031H16.7061V2.21875Z" fill="#D0D0D0"/>
<path d="M18.4595 2.21875H19.6454V5.57031H18.4595V2.21875Z" fill="#94989B"/>
<path d="M16.0874 1.03125H19.0265V2.21719H16.0874V1.03125Z" fill="#D0D0D0"/>
<path d="M19.0264 1.03125H20.2123V2.21719H19.0264V1.03125Z" fill="#94989B"/>
<path d="M12.478 1.03125L1.39209 7.37344H23.6155L12.478 1.03125Z" fill="#ED4C5C"/>
<path d="M4.5376 7.375H20.4704V17.1719H4.5376V7.375Z" fill="#F9F3D9"/>
<path d="M10.5186 10.3125H14.4889V14.2828H10.5186V10.3125Z" fill="#D6EEF0"/>
<path d="M10.0029 9.79688V14.7469H14.9529V9.79688H10.0029ZM14.4889 10.3125V12.0656H12.7357V10.3125H14.4889ZM12.2717 10.3125V12.0656H10.5186V10.3125H12.2717ZM10.5186 14.2828V12.5297H12.2717V14.2828H10.5186ZM12.7357 14.2828V12.5297H14.4889V14.2828H12.7357Z" fill="#89664C"/>
<path d="M3.2998 21.0898H26.8123V31.0414H3.2998V21.0898Z" fill="#F9F3D9"/>
<path d="M19.0264 24.0273H22.9967V27.9977H19.0264V24.0273Z" fill="#D6EEF0"/>
<path d="M18.5107 23.5625V28.5125H23.4607V23.5625H18.5107ZM22.9967 24.0266V25.7797H21.2436V24.0266H22.9967ZM20.7279 24.0266V25.7797H18.9748V24.0266H20.7279ZM19.0264 27.9969V26.2953H20.7795V28.0484H19.0264V27.9969ZM21.2436 27.9969V26.2953H22.9967V28.0484H21.2436V27.9969ZM9.4873 24.9031H13.8186V30.9875H9.4873V24.9031Z" fill="#89664C"/>
<path d="M9.0752 24.0273H14.283V24.9039H9.0752V24.0273Z" fill="#DBB471"/>
<path d="M13.097 27.8453C13.2678 27.8453 13.4063 27.7068 13.4063 27.5359C13.4063 27.3651 13.2678 27.2266 13.097 27.2266C12.9261 27.2266 12.7876 27.3651 12.7876 27.5359C12.7876 27.7068 12.9261 27.8453 13.097 27.8453Z" fill="#F9F3D9"/>
<path d="M1.03125 30.9883H31.9688V31.968H1.03125V30.9883Z" fill="#83BF4F"/>
<path d="M25.575 17.2227H4.48594L1.03125 21.0898H29.0813L25.575 17.2227Z" fill="#ED4C5C"/>
<path d="M31.9688 28.9766C31.9688 28.3578 31.5048 27.8937 30.886 27.8937C30.7829 27.8937 30.6282 27.8937 30.5251 27.9453C30.3704 27.6875 30.1126 27.4812 29.8032 27.4812C29.597 27.4812 29.4423 27.5328 29.2876 27.6359V27.4812C29.2876 27.0172 28.9267 26.6562 28.4626 26.6562C28.0501 26.6562 27.7407 26.9656 27.6376 27.3266C27.5345 27.2234 27.4313 27.2234 27.2767 27.2234C26.9673 27.2234 26.7095 27.4813 26.7095 27.7906V31.0391H31.0407C31.5048 31.0391 31.8657 30.6781 31.8657 30.2141C31.8657 30.0078 31.7626 29.8016 31.6595 29.6469C31.8657 29.4406 31.9688 29.2344 31.9688 28.9766Z" fill="#83BF4F"/>
<path d="M31.9688 30.1656C31.9688 29.9594 31.8656 29.7531 31.7625 29.5984C31.9172 29.3922 31.9688 29.1859 31.9688 28.9281C31.9688 28.3094 31.5047 27.8453 30.8859 27.8453C30.7828 27.8453 30.6281 27.8453 30.525 27.8969C30.4219 27.7422 30.3188 27.5875 30.1125 27.4844C29.8031 27.5875 29.6484 27.8969 29.6484 28.2063C29.6484 28.3094 29.6484 28.3609 29.7 28.4125C29.6484 28.3609 29.5453 28.3609 29.4422 28.3609C29.1328 28.3609 28.875 28.6187 28.875 28.9281C28.875 29.1344 28.9781 29.2891 29.1844 29.3922C29.0812 29.5469 28.9781 29.7531 28.9781 29.9594C28.9781 30.475 29.3906 30.8875 29.9062 30.8875H31.1438C31.6078 30.9906 31.9688 30.6297 31.9688 30.1656ZM28.7719 30.3203C28.7719 30.6297 28.5141 30.2172 28.2047 30.2172C27.8953 30.2172 27.6375 30.6297 27.6375 30.3203C27.6375 30.0109 27.8953 29.7531 28.2047 29.7531C28.5141 29.7531 28.7719 30.0109 28.7719 30.3203ZM27.5859 29.3922C27.5859 29.5469 27.4828 29.3922 27.3281 29.3922C27.1734 29.3922 27.0703 29.5469 27.0703 29.3922C27.0703 29.2375 27.1734 29.1344 27.3281 29.1344C27.4313 29.0828 27.5859 29.2375 27.5859 29.3922Z" fill="#699635"/>
<path d="M28.05 28.5641C28.05 28.7188 27.9469 28.5125 27.7922 28.5125C27.6375 28.5125 27.5344 28.7188 27.5344 28.5641C27.5344 28.4094 27.6375 28.3063 27.7922 28.3063C27.9469 28.3063 28.05 28.4094 28.05 28.5641ZM30.3188 29.9047C30.3188 30.1109 30.1641 29.8016 29.9578 29.8016C29.7516 29.8016 29.5969 30.1109 29.5969 29.9047C29.5969 29.6984 29.7516 29.5437 29.9578 29.5437C30.1125 29.5437 30.3188 29.6984 30.3188 29.9047ZM31.35 28.925C31.35 29.2344 31.0922 28.7703 30.7828 28.7703C30.4734 28.7703 30.2156 29.2344 30.2156 28.925C30.2156 28.6156 30.4734 28.3578 30.7828 28.3578C31.0922 28.3578 31.35 28.6156 31.35 28.925ZM31.35 30.2141C31.35 30.3687 31.2469 30.2141 31.0922 30.2141C30.9375 30.2141 30.8344 30.3687 30.8344 30.2141C30.8344 30.0594 30.9375 29.9562 31.0922 29.9562C31.2469 29.9562 31.35 30.0594 31.35 30.2141ZM28.9266 27.9969C28.9266 28.2031 28.7719 27.8937 28.5656 27.8937C28.3594 27.8937 28.2047 28.2031 28.2047 27.9969C28.2047 27.7906 28.3594 27.6359 28.5656 27.6359C28.7719 27.6359 28.9266 27.7906 28.9266 27.9969ZM6.1875 28.9766C6.1875 28.3578 5.72344 27.8937 5.10469 27.8937C5.00156 27.8937 4.84687 27.8937 4.74375 27.9453C4.58906 27.6875 4.33125 27.4812 4.02188 27.4812C3.81563 27.4812 3.66094 27.5328 3.50625 27.6359V27.4812C3.50625 27.0172 3.14531 26.6562 2.68125 26.6562C2.26875 26.6562 1.95938 26.9656 1.90781 27.3266C1.80469 27.2234 1.70156 27.2234 1.54688 27.2234C1.2375 27.2234 1.03125 27.4813 1.03125 27.7906V31.0391H5.3625C5.82656 31.0391 6.1875 30.6781 6.1875 30.2141C6.1875 30.0078 6.08438 29.8016 5.98125 29.6469C6.08438 29.4406 6.1875 29.2344 6.1875 28.9766Z" fill="#83BF4F"/>
<path d="M6.1875 30.1656C6.1875 29.9594 6.08438 29.7531 5.98125 29.5984C6.13594 29.3922 6.1875 29.1859 6.1875 28.9281C6.1875 28.3094 5.72344 27.8453 5.10469 27.8453C5.00156 27.8453 4.84687 27.8453 4.74375 27.8969C4.64062 27.7422 4.5375 27.5875 4.33125 27.4844C4.02187 27.5875 3.86719 27.8969 3.86719 28.2063C3.86719 28.3094 3.86719 28.3609 3.91875 28.4125C3.86719 28.3609 3.76406 28.3609 3.66094 28.3609C3.35156 28.3609 3.09375 28.6187 3.09375 28.9281C3.09375 29.1344 3.19687 29.2891 3.40313 29.3922C3.3 29.5469 3.19687 29.7531 3.19687 29.9594C3.19687 30.475 3.60938 30.8875 4.125 30.8875H5.3625C5.82656 30.9906 6.1875 30.6297 6.1875 30.1656ZM2.99063 30.3203C2.99063 30.6297 2.73281 30.2172 2.42344 30.2172C2.11406 30.2172 1.85625 30.6297 1.85625 30.3203C1.85625 30.0109 2.11406 29.7531 2.42344 29.7531C2.73281 29.7531 2.99063 30.0109 2.99063 30.3203ZM1.80469 29.3922C1.80469 29.5469 1.70156 29.3922 1.54688 29.3922C1.39219 29.3922 1.28906 29.5469 1.28906 29.3922C1.28906 29.2375 1.39219 29.1344 1.54688 29.1344C1.65 29.0828 1.80469 29.2375 1.80469 29.3922Z" fill="#699635"/>
<path d="M2.26855 28.5648C2.26855 28.7195 2.16543 28.5133 2.01074 28.5133C1.85605 28.5133 1.75293 28.7195 1.75293 28.5648C1.75293 28.4102 1.85605 28.307 2.01074 28.307C2.11387 28.307 2.26855 28.4102 2.26855 28.5648ZM4.5373 29.9055C4.5373 30.1117 4.38262 29.8023 4.17637 29.8023C3.97012 29.8023 3.81543 30.1117 3.81543 29.9055C3.81543 29.6992 3.97012 29.5445 4.17637 29.5445C4.33105 29.5445 4.5373 29.6992 4.5373 29.9055ZM5.56855 28.9258C5.56855 29.2352 5.31074 28.7711 5.00137 28.7711C4.69199 28.7711 4.43418 29.2352 4.43418 28.9258C4.43418 28.6164 4.74355 28.3586 5.00137 28.3586C5.31074 28.3586 5.56855 28.6164 5.56855 28.9258ZM5.56855 30.2148C5.56855 30.3695 5.46543 30.2148 5.31074 30.2148C5.15605 30.2148 5.05293 30.3695 5.05293 30.2148C5.05293 30.0602 5.15605 29.957 5.31074 29.957C5.46543 29.9055 5.56855 30.0602 5.56855 30.2148ZM3.14512 27.9977C3.14512 28.2039 2.99043 27.8945 2.78418 27.8945C2.57793 27.8945 2.42324 28.2039 2.42324 27.9977C2.42324 27.7914 2.57793 27.6367 2.78418 27.6367C2.99043 27.6367 3.14512 27.7914 3.14512 27.9977Z" fill="#83BF4F"/>
</svg>
