<svg width="10" height="5" viewBox="0 0 10 5" fill="none" xmlns="http://www.w3.org/2000/svg">
<path d="M9.01534 0.765277L5.26534 4.51528C5.23051 4.55014 5.18915 4.5778 5.14363 4.59667C5.0981 4.61555 5.04931 4.62526 5.00003 4.62526C4.95074 4.62526 4.90195 4.61555 4.85642 4.59667C4.8109 4.5778 4.76954 4.55014 4.73471 4.51528L0.984713 0.765277C0.914348 0.694912 0.874817 0.599476 0.874817 0.499964C0.874817 0.400453 0.914348 0.305017 0.984713 0.234652C1.05508 0.164286 1.15051 0.124756 1.25003 0.124756C1.34954 0.124756 1.44497 0.164286 1.51534 0.234652L5.00003 3.71981L8.48471 0.234652C8.51955 0.19981 8.56092 0.172173 8.60644 0.153317C8.65196 0.134461 8.70075 0.124756 8.75003 0.124756C8.7993 0.124756 8.84809 0.134461 8.89361 0.153317C8.93913 0.172173 8.9805 0.19981 9.01534 0.234652C9.05018 0.269493 9.07782 0.310856 9.09667 0.356378C9.11553 0.401901 9.12523 0.450691 9.12523 0.499964C9.12523 0.549237 9.11553 0.598028 9.09667 0.643551C9.07782 0.689073 9.05018 0.730436 9.01534 0.765277Z" fill="black"/>
</svg>
