<svg width="25" height="24" viewBox="0 0 25 24" fill="none" xmlns="http://www.w3.org/2000/svg">
<g clip-path="url(#clip0_1_89)">
<path d="M24.0803 11.6962C24.0475 11.6222 23.2534 9.86062 21.4881 8.09531C19.1359 5.74312 16.165 4.5 12.895 4.5C9.62501 4.5 6.65407 5.74312 4.30189 8.09531C2.53657 9.86062 1.73876 11.625 1.7097 11.6962C1.66705 11.7922 1.64502 11.896 1.64502 12.0009C1.64502 12.1059 1.66705 12.2097 1.7097 12.3056C1.74251 12.3797 2.53657 14.1403 4.30189 15.9056C6.65407 18.2569 9.62501 19.5 12.895 19.5C16.165 19.5 19.1359 18.2569 21.4881 15.9056C23.2534 14.1403 24.0475 12.3797 24.0803 12.3056C24.123 12.2097 24.145 12.1059 24.145 12.0009C24.145 11.896 24.123 11.7922 24.0803 11.6962ZM12.895 18C10.0094 18 7.48845 16.9509 5.40157 14.8828C4.5453 14.0313 3.81681 13.0603 3.23876 12C3.81666 10.9396 4.54516 9.9686 5.40157 9.11719C7.48845 7.04906 10.0094 6 12.895 6C15.7806 6 18.3016 7.04906 20.3884 9.11719C21.2464 9.9684 21.9765 10.9394 22.5559 12C21.88 13.2619 18.9353 18 12.895 18ZM12.895 7.5C12.005 7.5 11.135 7.76392 10.3949 8.25839C9.65492 8.75285 9.07815 9.45566 8.73755 10.2779C8.39696 11.1002 8.30784 12.005 8.48148 12.8779C8.65511 13.7508 9.08369 14.5526 9.71303 15.182C10.3424 15.8113 11.1442 16.2399 12.0171 16.4135C12.89 16.5872 13.7948 16.4981 14.6171 16.1575C15.4394 15.8169 16.1422 15.2401 16.6366 14.5001C17.1311 13.76 17.395 12.89 17.395 12C17.3938 10.8069 16.9193 9.66303 16.0756 8.81939C15.232 7.97575 14.0881 7.50124 12.895 7.5ZM12.895 15C12.3017 15 11.7216 14.8241 11.2283 14.4944C10.735 14.1648 10.3504 13.6962 10.1234 13.1481C9.89631 12.5999 9.8369 11.9967 9.95265 11.4147C10.0684 10.8328 10.3541 10.2982 10.7737 9.87868C11.1932 9.45912 11.7278 9.1734 12.3097 9.05764C12.8917 8.94189 13.4949 9.0013 14.0431 9.22836C14.5912 9.45542 15.0598 9.83994 15.3894 10.3333C15.7191 10.8266 15.895 11.4067 15.895 12C15.895 12.7956 15.5789 13.5587 15.0163 14.1213C14.4537 14.6839 13.6907 15 12.895 15Z" fill="black"/>
</g>
<defs>
<clipPath id="clip0_1_89">
<rect width="24" height="24" fill="white" transform="translate(0.89502)"/>
</clipPath>
</defs>
</svg>
