<svg width="33" height="33" viewBox="0 0 33 33" fill="none" xmlns="http://www.w3.org/2000/svg">
<path d="M8.5651 13.4779H6.73177C6.61021 13.4779 6.49363 13.4296 6.40768 13.3436C6.32173 13.2577 6.27344 13.1411 6.27344 13.0195V6.60286C6.27344 6.48131 6.32173 6.36473 6.40768 6.27877C6.49363 6.19282 6.61021 6.14453 6.73177 6.14453H8.5651C8.68666 6.14453 8.80324 6.19282 8.8892 6.27877C8.97515 6.36473 9.02344 6.48131 9.02344 6.60286V13.0195C9.02344 13.1411 8.97515 13.2577 8.8892 13.3436C8.80324 13.4296 8.68666 13.4779 8.5651 13.4779Z" fill="#A0041E"/>
<path d="M4.5835 14.6667L16.5002 2.75L28.4168 14.6667V30.25H4.5835V14.6667Z" fill="#FFE8B6"/>
<path d="M16.5 14.668H17.4167V29.3346H16.5V14.668Z" fill="#FFCC4D"/>
<path d="M28.4169 15.5818C28.1738 15.5818 27.9406 15.4852 27.7688 15.3133L16.5002 4.04467L5.2316 15.3133C5.1465 15.3984 5.04546 15.4659 4.93426 15.5119C4.82306 15.558 4.70388 15.5817 4.58352 15.5817C4.46316 15.5817 4.34398 15.558 4.23278 15.5119C4.12158 15.4659 4.02054 15.3984 3.93544 15.3133C3.85033 15.2281 3.78282 15.1271 3.73676 15.0159C3.6907 14.9047 3.66699 14.7855 3.66699 14.6652C3.66699 14.5448 3.6907 14.4256 3.73676 14.3144C3.78282 14.2032 3.85033 14.1022 3.93544 14.0171L15.8521 2.10042C16.024 1.92857 16.2571 1.83203 16.5002 1.83203C16.7433 1.83203 16.9764 1.92857 17.1483 2.10042L29.0649 14.0171C29.1935 14.1451 29.2812 14.3085 29.3168 14.4864C29.3524 14.6643 29.3344 14.8488 29.2649 15.0165C29.1955 15.1842 29.0778 15.3274 28.9268 15.4281C28.7758 15.5287 28.5983 15.5822 28.4169 15.5818Z" fill="#66757F"/>
<path d="M16.4998 15.5845C16.3183 15.5849 16.1408 15.5314 15.9898 15.4307C15.8389 15.3301 15.7212 15.1868 15.6517 15.0192C15.5823 14.8515 15.5642 14.667 15.5998 14.4891C15.6354 14.3111 15.7231 14.1478 15.8517 14.0197L21.8101 8.06141C21.8952 7.97631 21.9962 7.9088 22.1074 7.86274C22.2186 7.81668 22.3378 7.79297 22.4581 7.79297C22.5785 7.79297 22.6977 7.81668 22.8089 7.86274C22.9201 7.9088 23.0211 7.97631 23.1062 8.06141C23.1913 8.14652 23.2588 8.24756 23.3049 8.35876C23.351 8.46996 23.3747 8.58914 23.3747 8.7095C23.3747 8.82986 23.351 8.94904 23.3049 9.06024C23.2588 9.17144 23.1913 9.27247 23.1062 9.35758L17.1479 15.3159C16.976 15.4878 16.7429 15.5844 16.4998 15.5845Z" fill="#66757F"/>
<path d="M9.1665 23.832H12.8332V29.332H9.1665V23.832Z" fill="#C1694F"/>
<path d="M9.1665 15.582H12.8332V19.2487H9.1665V15.582ZM20.6248 15.582H24.2915V19.2487H20.6248V15.582ZM20.6248 23.832H24.2915V27.4987H20.6248V23.832Z" fill="#55ACEE"/>
<path d="M30.7082 30.707C30.7082 31.0717 30.5633 31.4214 30.3054 31.6793C30.0476 31.9372 29.6978 32.082 29.3332 32.082H3.6665C3.30183 32.082 2.95209 31.9372 2.69423 31.6793C2.43637 31.4214 2.2915 31.0717 2.2915 30.707C2.2915 30.3424 2.43637 29.9926 2.69423 29.7348C2.95209 29.4769 3.30183 29.332 3.6665 29.332H29.3332C29.6978 29.332 30.0476 29.4769 30.3054 29.7348C30.5633 29.9926 30.7082 30.3424 30.7082 30.707Z" fill="#5C913B"/>
</svg>
