<svg width="192" height="192" viewBox="0 0 192 192" fill="none" xmlns="http://www.w3.org/2000/svg" xmlns:xlink="http://www.w3.org/1999/xlink">
<g id="Repeat group 1_inner" data-figma-trr="r40u9-0f">
<line x1="96.8242" y1="0.707031" x2="96.8242" y2="19.754" stroke="#008000" stroke-width="0.5"/>
</g>
<use xlink:href="#Repeat%20group%201_inner" transform="translate(16.07 -13.7251) rotate(9)"/>
<use xlink:href="#Repeat%20group%201_inner" transform="translate(34.0893 -24.7673) rotate(18)"/>
<use xlink:href="#Repeat%20group%201_inner" transform="translate(53.6141 -32.8548) rotate(27)"/>
<use xlink:href="#Repeat%20group%201_inner" transform="translate(74.1637 -37.7883) rotate(36)"/>
<use xlink:href="#Repeat%20group%201_inner" transform="translate(95.232 -39.4464) rotate(45)"/>
<use xlink:href="#Repeat%20group%201_inner" transform="translate(116.3 -37.7883) rotate(54)"/>
<use xlink:href="#Repeat%20group%201_inner" transform="translate(136.85 -32.8548) rotate(63)"/>
<use xlink:href="#Repeat%20group%201_inner" transform="translate(156.375 -24.7673) rotate(72)"/>
<use xlink:href="#Repeat%20group%201_inner" transform="translate(174.394 -13.7251) rotate(81)"/>
<use xlink:href="#Repeat%20group%201_inner" transform="translate(190.464 -2.73713e-06) rotate(90)"/>
<use xlink:href="#Repeat%20group%201_inner" transform="translate(204.189 16.07) rotate(99)"/>
<use xlink:href="#Repeat%20group%201_inner" transform="translate(215.231 34.0893) rotate(108)"/>
<use xlink:href="#Repeat%20group%201_inner" transform="translate(223.319 53.6141) rotate(117)"/>
<use xlink:href="#Repeat%20group%201_inner" transform="translate(228.252 74.1637) rotate(126)"/>
<use xlink:href="#Repeat%20group%201_inner" transform="translate(229.91 95.232) rotate(135)"/>
<use xlink:href="#Repeat%20group%201_inner" transform="translate(228.252 116.3) rotate(144)"/>
<use xlink:href="#Repeat%20group%201_inner" transform="translate(223.319 136.85) rotate(153)"/>
<use xlink:href="#Repeat%20group%201_inner" transform="translate(215.231 156.375) rotate(162)"/>
<use xlink:href="#Repeat%20group%201_inner" transform="translate(204.189 174.394) rotate(171)"/>
<use xlink:href="#Repeat%20group%201_inner" transform="translate(190.464 190.464) rotate(-180)"/>
<use xlink:href="#Repeat%20group%201_inner" transform="translate(174.394 204.189) rotate(-171)"/>
<use xlink:href="#Repeat%20group%201_inner" transform="translate(156.375 215.231) rotate(-162)"/>
<use xlink:href="#Repeat%20group%201_inner" transform="translate(136.85 223.319) rotate(-153)"/>
<use xlink:href="#Repeat%20group%201_inner" transform="translate(116.3 228.252) rotate(-144)"/>
<use xlink:href="#Repeat%20group%201_inner" transform="translate(95.232 229.91) rotate(-135)"/>
<use xlink:href="#Repeat%20group%201_inner" transform="translate(74.1636 228.252) rotate(-126)"/>
<use xlink:href="#Repeat%20group%201_inner" transform="translate(53.6141 223.319) rotate(-117)"/>
<use xlink:href="#Repeat%20group%201_inner" transform="translate(34.0893 215.231) rotate(-108)"/>
<use xlink:href="#Repeat%20group%201_inner" transform="translate(16.07 204.189) rotate(-99)"/>
<use xlink:href="#Repeat%20group%201_inner" transform="translate(5.76422e-06 190.464) rotate(-90)"/>
<use xlink:href="#Repeat%20group%201_inner" transform="translate(-13.7251 174.394) rotate(-81)"/>
<use xlink:href="#Repeat%20group%201_inner" transform="translate(-24.7673 156.375) rotate(-72)"/>
<use xlink:href="#Repeat%20group%201_inner" transform="translate(-32.8548 136.85) rotate(-63)"/>
<use xlink:href="#Repeat%20group%201_inner" transform="translate(-37.7883 116.3) rotate(-54)"/>
<use xlink:href="#Repeat%20group%201_inner" transform="translate(-39.4464 95.232) rotate(-45)"/>
<use xlink:href="#Repeat%20group%201_inner" transform="translate(-37.7883 74.1636) rotate(-36)"/>
<use xlink:href="#Repeat%20group%201_inner" transform="translate(-32.8548 53.6141) rotate(-27)"/>
<use xlink:href="#Repeat%20group%201_inner" transform="translate(-24.7673 34.0893) rotate(-18)"/>
<use xlink:href="#Repeat%20group%201_inner" transform="translate(-13.7251 16.07) rotate(-8.99999)"/>
</svg>
