<svg width="38" height="38" viewBox="0 0 38 38" fill="none" xmlns="http://www.w3.org/2000/svg">
<circle cx="19" cy="19" r="18.85" fill="white" stroke="#CDCDCD" stroke-width="0.3"/>
<circle cx="19" cy="19" r="15" fill="#D32525"/>
<path d="M9.5 19C9.5 14.522 9.5 12.282 10.891 10.891C12.282 9.5 14.521 9.5 19 9.5C23.478 9.5 25.718 9.5 27.109 10.891C28.5 12.282 28.5 14.521 28.5 19C28.5 23.478 28.5 25.718 27.109 27.109C25.718 28.5 23.479 28.5 19 28.5C14.522 28.5 12.282 28.5 10.891 27.109C9.5 25.718 9.5 23.479 9.5 19Z" stroke="white" stroke-width="1.5" stroke-linecap="round" stroke-linejoin="round"/>
<path d="M24.508 13.5H24.498M23.5 19C23.5 20.1935 23.0259 21.3381 22.182 22.182C21.3381 23.0259 20.1935 23.5 19 23.5C17.8065 23.5 16.6619 23.0259 15.818 22.182C14.9741 21.3381 14.5 20.1935 14.5 19C14.5 17.8065 14.9741 16.6619 15.818 15.818C16.6619 14.9741 17.8065 14.5 19 14.5C20.1935 14.5 21.3381 14.9741 22.182 15.818C23.0259 16.6619 23.5 17.8065 23.5 19Z" stroke="white" stroke-width="1.5" stroke-linecap="round" stroke-linejoin="round"/>
</svg>
