<svg width="25" height="25" viewBox="0 0 25 25" fill="none" xmlns="http://www.w3.org/2000/svg">
<path d="M23.6016 19.9087C23.6016 20.1076 23.5225 20.2984 23.3819 20.439C23.2412 20.5797 23.0505 20.6587 22.8516 20.6587H1.85156C1.65265 20.6587 1.46188 20.5797 1.32123 20.439C1.18058 20.2984 1.10156 20.1076 1.10156 19.9087C1.10156 19.7098 1.18058 19.519 1.32123 19.3783C1.46188 19.2377 1.65265 19.1587 1.85156 19.1587H22.8516C23.0505 19.1587 23.2412 19.2377 23.3819 19.3783C23.5225 19.519 23.6016 19.7098 23.6016 19.9087ZM1.87969 9.61305C1.83508 9.45577 1.84309 9.28821 1.90249 9.1359C1.96189 8.98359 2.06943 8.85485 2.20875 8.7693L11.9587 2.7693C12.0769 2.69666 12.2129 2.6582 12.3516 2.6582C12.4903 2.6582 12.6262 2.69666 12.7444 2.7693L22.4944 8.7693C22.6337 8.85475 22.7414 8.98339 22.8009 9.13564C22.8604 9.28789 22.8685 9.45542 22.824 9.61272C22.7796 9.77002 22.6849 9.90849 22.5545 10.007C22.4241 10.1056 22.265 10.1588 22.1016 10.1587H19.8516V16.1587H21.3516C21.5505 16.1587 21.7412 16.2377 21.8819 16.3783C22.0225 16.519 22.1016 16.7098 22.1016 16.9087C22.1016 17.1076 22.0225 17.2984 21.8819 17.439C21.7412 17.5797 21.5505 17.6587 21.3516 17.6587H3.35156C3.15265 17.6587 2.96188 17.5797 2.82123 17.439C2.68058 17.2984 2.60156 17.1076 2.60156 16.9087C2.60156 16.7098 2.68058 16.519 2.82123 16.3783C2.96188 16.2377 3.15265 16.1587 3.35156 16.1587H4.85156V10.1587H2.60156C2.43824 10.1587 2.27936 10.1055 2.14907 10.007C2.01878 9.90851 1.92419 9.77019 1.87969 9.61305ZM13.8516 15.4087C13.8516 15.6076 13.9306 15.7984 14.0712 15.939C14.2119 16.0797 14.4026 16.1587 14.6016 16.1587C14.8005 16.1587 14.9912 16.0797 15.1319 15.939C15.2725 15.7984 15.3516 15.6076 15.3516 15.4087V10.9087C15.3516 10.7098 15.2725 10.519 15.1319 10.3783C14.9912 10.2377 14.8005 10.1587 14.6016 10.1587C14.4026 10.1587 14.2119 10.2377 14.0712 10.3783C13.9306 10.519 13.8516 10.7098 13.8516 10.9087V15.4087ZM9.35156 15.4087C9.35156 15.6076 9.43058 15.7984 9.57123 15.939C9.71188 16.0797 9.90265 16.1587 10.1016 16.1587C10.3005 16.1587 10.4912 16.0797 10.6319 15.939C10.7725 15.7984 10.8516 15.6076 10.8516 15.4087V10.9087C10.8516 10.7098 10.7725 10.519 10.6319 10.3783C10.4912 10.2377 10.3005 10.1587 10.1016 10.1587C9.90265 10.1587 9.71188 10.2377 9.57123 10.3783C9.43058 10.519 9.35156 10.7098 9.35156 10.9087V15.4087Z" fill="#273E8E"/>
</svg>
