<svg width="25" height="25" viewBox="0 0 25 25" fill="none" xmlns="http://www.w3.org/2000/svg">
<path d="M20.8735 4.64746H4.37354C3.97571 4.64746 3.59418 4.8055 3.31287 5.0868C3.03157 5.36811 2.87354 5.74964 2.87354 6.14746V19.6475C2.87354 20.0453 3.03157 20.4268 3.31287 20.7081C3.59418 20.9894 3.97571 21.1475 4.37354 21.1475H20.8735C21.2714 21.1475 21.6529 20.9894 21.9342 20.7081C22.2155 20.4268 22.3735 20.0453 22.3735 19.6475V6.14746C22.3735 5.74964 22.2155 5.36811 21.9342 5.0868C21.6529 4.8055 21.2714 4.64746 20.8735 4.64746ZM12.6235 15.8975C11.4304 15.8962 10.2866 15.4217 9.44293 14.5781C8.59928 13.7344 8.12478 12.5906 8.12354 11.3975C8.12354 11.1985 8.20255 11.0078 8.34321 10.8671C8.48386 10.7265 8.67462 10.6475 8.87354 10.6475C9.07245 10.6475 9.26321 10.7265 9.40386 10.8671C9.54452 11.0078 9.62354 11.1985 9.62354 11.3975C9.62354 12.1931 9.93961 12.9562 10.5022 13.5188C11.0648 14.0814 11.8279 14.3975 12.6235 14.3975C13.4192 14.3975 14.1822 14.0814 14.7449 13.5188C15.3075 12.9562 15.6235 12.1931 15.6235 11.3975C15.6235 11.1985 15.7026 11.0078 15.8432 10.8671C15.9839 10.7265 16.1746 10.6475 16.3735 10.6475C16.5724 10.6475 16.7632 10.7265 16.9039 10.8671C17.0445 11.0078 17.1235 11.1985 17.1235 11.3975C17.1223 12.5906 16.6478 13.7344 15.8041 14.5781C14.9605 15.4217 13.8166 15.8962 12.6235 15.8975ZM4.37354 7.64746V6.14746H20.8735V7.64746H4.37354Z" fill="white" fill-opacity="0.7"/>
</svg>
