<svg width="25" height="25" viewBox="0 0 25 25" fill="none" xmlns="http://www.w3.org/2000/svg">
<path d="M20.8735 4.64844H4.37354C3.97571 4.64844 3.59418 4.80647 3.31287 5.08778C3.03157 5.36908 2.87354 5.75061 2.87354 6.14844V19.6484C2.87354 20.0463 3.03157 20.4278 3.31287 20.7091C3.59418 20.9904 3.97571 21.1484 4.37354 21.1484H20.8735C21.2714 21.1484 21.6529 20.9904 21.9342 20.7091C22.2155 20.4278 22.3735 20.0463 22.3735 19.6484V6.14844C22.3735 5.75061 22.2155 5.36908 21.9342 5.08778C21.6529 4.80647 21.2714 4.64844 20.8735 4.64844ZM12.6235 15.8984C11.4304 15.8972 10.2866 15.4227 9.44293 14.579C8.59928 13.7354 8.12478 12.5915 8.12354 11.3984C8.12354 11.1995 8.20255 11.0088 8.34321 10.8681C8.48386 10.7275 8.67462 10.6484 8.87354 10.6484C9.07245 10.6484 9.26321 10.7275 9.40386 10.8681C9.54452 11.0088 9.62354 11.1995 9.62354 11.3984C9.62354 12.1941 9.93961 12.9571 10.5022 13.5198C11.0648 14.0824 11.8279 14.3984 12.6235 14.3984C13.4192 14.3984 14.1822 14.0824 14.7449 13.5198C15.3075 12.9571 15.6235 12.1941 15.6235 11.3984C15.6235 11.1995 15.7026 11.0088 15.8432 10.8681C15.9839 10.7275 16.1746 10.6484 16.3735 10.6484C16.5724 10.6484 16.7632 10.7275 16.9039 10.8681C17.0445 11.0088 17.1235 11.1995 17.1235 11.3984C17.1223 12.5915 16.6478 13.7354 15.8041 14.579C14.9605 15.4227 13.8166 15.8972 12.6235 15.8984ZM4.37354 7.64844V6.14844H20.8735V7.64844H4.37354Z" fill="#273E8E"/>
</svg>
