<svg width="25" height="25" viewBox="0 0 25 25" fill="none" xmlns="http://www.w3.org/2000/svg">
<path d="M23.6016 19.9092C23.6016 20.1081 23.5225 20.2988 23.3819 20.4395C23.2412 20.5801 23.0505 20.6592 22.8516 20.6592H1.85156C1.65265 20.6592 1.46188 20.5801 1.32123 20.4395C1.18058 20.2988 1.10156 20.1081 1.10156 19.9092C1.10156 19.7102 1.18058 19.5195 1.32123 19.3788C1.46188 19.2382 1.65265 19.1592 1.85156 19.1592H22.8516C23.0505 19.1592 23.2412 19.2382 23.3819 19.3788C23.5225 19.5195 23.6016 19.7102 23.6016 19.9092ZM1.87969 9.61354C1.83508 9.45625 1.84309 9.2887 1.90249 9.13639C1.96189 8.98407 2.06943 8.85534 2.20875 8.76979L11.9587 2.76979C12.0769 2.69715 12.2129 2.65869 12.3516 2.65869C12.4903 2.65869 12.6262 2.69715 12.7444 2.76979L22.4944 8.76979C22.6337 8.85524 22.7414 8.98388 22.8009 9.13613C22.8604 9.28838 22.8685 9.45591 22.824 9.61321C22.7796 9.77051 22.6849 9.90898 22.5545 10.0075C22.4241 10.1061 22.265 10.1593 22.1016 10.1592H19.8516V16.1592H21.3516C21.5505 16.1592 21.7412 16.2382 21.8819 16.3788C22.0225 16.5195 22.1016 16.7102 22.1016 16.9092C22.1016 17.1081 22.0225 17.2988 21.8819 17.4395C21.7412 17.5801 21.5505 17.6592 21.3516 17.6592H3.35156C3.15265 17.6592 2.96188 17.5801 2.82123 17.4395C2.68058 17.2988 2.60156 17.1081 2.60156 16.9092C2.60156 16.7102 2.68058 16.5195 2.82123 16.3788C2.96188 16.2382 3.15265 16.1592 3.35156 16.1592H4.85156V10.1592H2.60156C2.43824 10.1592 2.27936 10.106 2.14907 10.0075C2.01878 9.909 1.92419 9.77068 1.87969 9.61354ZM13.8516 15.4092C13.8516 15.6081 13.9306 15.7988 14.0712 15.9395C14.2119 16.0801 14.4026 16.1592 14.6016 16.1592C14.8005 16.1592 14.9912 16.0801 15.1319 15.9395C15.2725 15.7988 15.3516 15.6081 15.3516 15.4092V10.9092C15.3516 10.7102 15.2725 10.5195 15.1319 10.3788C14.9912 10.2382 14.8005 10.1592 14.6016 10.1592C14.4026 10.1592 14.2119 10.2382 14.0712 10.3788C13.9306 10.5195 13.8516 10.7102 13.8516 10.9092V15.4092ZM9.35156 15.4092C9.35156 15.6081 9.43058 15.7988 9.57123 15.9395C9.71188 16.0801 9.90265 16.1592 10.1016 16.1592C10.3005 16.1592 10.4912 16.0801 10.6319 15.9395C10.7725 15.7988 10.8516 15.6081 10.8516 15.4092V10.9092C10.8516 10.7102 10.7725 10.5195 10.6319 10.3788C10.4912 10.2382 10.3005 10.1592 10.1016 10.1592C9.90265 10.1592 9.71188 10.2382 9.57123 10.3788C9.43058 10.5195 9.35156 10.7102 9.35156 10.9092V15.4092Z" fill="white" fill-opacity="0.7"/>
</svg>
