<svg width="252" height="126" viewBox="0 0 252 126" fill="none" xmlns="http://www.w3.org/2000/svg">
<mask id="path-1-inside-1_12_1032" fill="white">
<path d="M247 126C249.761 126 252.01 123.76 251.901 121C250.647 89.4 237.544 59.3531 215.095 36.9045C191.466 13.275 159.417 2.52293e-06 126 0C92.5827 -2.52293e-06 60.5341 13.275 36.9046 36.9045C14.456 59.3531 1.3529 89.4 0.0991274 121C-0.0103484 123.76 2.23858 126 5 126H19.7953C22.5568 126 24.7824 123.76 24.9187 121.002C26.155 95.9804 36.6394 72.2356 54.4375 54.4375C73.4171 35.4579 99.1589 24.7953 126 24.7953C152.841 24.7953 178.583 35.4579 197.562 54.4375C215.361 72.2357 225.845 95.9804 227.081 121.002C227.218 123.76 229.443 126 232.205 126H247Z"/>
</mask>
<path d="M247 126C249.761 126 252.01 123.76 251.901 121C250.647 89.4 237.544 59.3531 215.095 36.9045C191.466 13.275 159.417 2.52293e-06 126 0C92.5827 -2.52293e-06 60.5341 13.275 36.9046 36.9045C14.456 59.3531 1.3529 89.4 0.0991274 121C-0.0103484 123.76 2.23858 126 5 126H19.7953C22.5568 126 24.7824 123.76 24.9187 121.002C26.155 95.9804 36.6394 72.2356 54.4375 54.4375C73.4171 35.4579 99.1589 24.7953 126 24.7953C152.841 24.7953 178.583 35.4579 197.562 54.4375C215.361 72.2357 225.845 95.9804 227.081 121.002C227.218 123.76 229.443 126 232.205 126H247Z" fill="url(#paint0_linear_12_1032)" stroke="white" stroke-width="2" mask="url(#path-1-inside-1_12_1032)"/>
<defs>
<linearGradient id="paint0_linear_12_1032" x1="211.5" y1="33" x2="21" y2="131.5" gradientUnits="userSpaceOnUse">
<stop stop-color="#008000"/>
<stop offset="1" stop-color="#FF0000"/>
</linearGradient>
</defs>
</svg>
