<svg width="33" height="33" viewBox="0 0 33 33" fill="none" xmlns="http://www.w3.org/2000/svg">
<g clip-path="url(#clip0_22_2433)">
<path d="M3.12451 29.6523H29.9422V31.7406H3.12451V29.6523Z" fill="#BBBCBE"/>
<path d="M6.9585 5.96484H10.4343V11.9817H6.9585V5.96484Z" fill="#633D19"/>
<path d="M3.12451 28.6094H29.9422V30.6997H3.12451V28.6094Z" fill="#F0CA93"/>
<path d="M4.93001 14.375L3.30786 14.8566L1.95537 15.9734L0.614746 17.577H4.37881L4.93001 14.375ZM28.0434 14.375L29.6625 14.8566L31.0134 15.9734L32.3587 17.577H28.5951L28.0434 14.375Z" fill="#992C3E"/>
<path d="M20.6545 29.0273C20.95 29.0273 21.1913 29.3063 21.1913 29.6492C21.1913 29.9967 20.95 30.2731 20.6545 30.2731H12.2462C11.9498 30.2731 11.7095 29.9967 11.7095 29.6492C11.7095 29.3063 11.9492 29.0273 12.2462 29.0273H20.6545Z" fill="#BBBCBE"/>
<path d="M21.1959 30.2773C21.5336 30.2773 21.8095 30.5589 21.8095 30.9043C21.8095 31.2472 21.5336 31.5283 21.1959 31.5283H11.6125C11.2758 31.5283 11.0015 31.2472 11.0015 30.9043C11.0015 30.5589 11.2758 30.2773 11.6125 30.2773H21.1959Z" fill="#999999"/>
<path d="M21.799 31.5234C22.1759 31.5234 22.4812 31.805 22.4812 32.1479C22.4812 32.4907 22.1759 32.7723 21.799 32.7723H11.1147C10.7388 32.7723 10.4336 32.4907 10.4336 32.1479C10.4336 31.805 10.7388 31.5234 11.1147 31.5234H21.799Z" fill="#7C7D7E"/>
<path d="M3.84912 15.2367L16.5242 5.17578L29.2199 15.2367V28.958H3.85118L3.84912 15.2367Z" fill="#E7E5E5"/>
<path d="M8.48511 28.958H3.84912V14.9123L16.1994 5.17578L16.8011 5.513L8.48407 15.0763L8.48511 28.958Z" fill="#D1D2D2"/>
<path d="M16.8753 4.86313C17.0764 5.18694 16.9666 5.64946 16.6376 5.89438L1.05542 17.4274C0.725423 17.6733 0.293845 17.6073 0.0942977 17.283C-0.104218 16.9566 0.00303201 16.4936 0.334063 16.2517L15.9163 4.71669C16.2463 4.47384 16.6778 4.53984 16.8763 4.86519" fill="#DF394C"/>
<path d="M16.1169 4.86302C15.9184 5.18684 16.0272 5.64935 16.3572 5.89427L31.9393 17.4278C32.2719 17.6737 32.7009 17.6077 32.9005 17.2834C33.1005 16.957 32.9928 16.494 32.6612 16.2521L17.079 4.7171C16.7465 4.47373 16.3159 4.53973 16.1174 4.86509" fill="#DF394C"/>
<path d="M19.2571 29.1288V24.4572C19.2571 22.7995 18.0372 21.4609 16.5336 21.4609C15.0275 21.4609 13.8096 22.7995 13.8096 24.4572V29.1288H19.2571Z" fill="#4E6B78"/>
<path d="M17.4111 21.6257C17.1312 21.5196 16.8344 21.4651 16.5351 21.4648C15.0289 21.4648 13.811 22.8034 13.811 24.4611V29.1327H15.5621V24.4611C15.5621 23.1417 16.335 22.0253 17.4111 21.6257Z" fill="#405967"/>
<path d="M11.326 5.73472C11.326 6.04358 11.0316 6.29366 10.6675 6.29366H6.80396C6.43993 6.29366 6.14551 6.04306 6.14551 5.73472C6.14551 5.42638 6.43993 5.17578 6.80396 5.17578H10.6675C11.0316 5.17578 11.326 5.42586 11.326 5.73472Z" fill="#DF394C"/>
<path d="M11.3732 23.7852C11.3732 24.4256 10.8225 24.9458 10.1424 24.9458H6.80116C6.12157 24.9458 5.56934 24.4251 5.56934 23.7852V19.1394C5.56934 18.4985 6.12157 17.9787 6.80116 17.9787H10.1424C10.822 17.9787 11.3732 18.4995 11.3732 19.1394V23.7852ZM27.4091 23.5609C27.4091 24.2018 26.8585 24.7221 26.1773 24.7221H22.8366C22.1554 24.7221 21.6053 24.2013 21.6053 23.5609V18.9151C21.6053 18.2716 22.1549 17.7539 22.8366 17.7539H26.1773C26.8579 17.7539 27.4091 18.2695 27.4091 18.9151V23.5609Z" fill="#28A6DE"/>
</g>
<defs>
<clipPath id="clip0_22_2433">
<rect width="33" height="33" fill="white"/>
</clipPath>
</defs>
</svg>
