<svg width="31" height="30" viewBox="0 0 31 30" fill="none" xmlns="http://www.w3.org/2000/svg">
<path d="M4.84 29L23.96 0.999998H26.32L7.2 29H4.84ZM7 16C5.74667 16 4.64 15.6933 3.68 15.08C2.72 14.44 1.97333 13.5467 1.44 12.4C0.933333 11.2533 0.68 9.92 0.68 8.4C0.68 6.88 0.933333 5.54667 1.44 4.4C1.97333 3.25333 2.72 2.37333 3.68 1.76C4.64 1.12 5.74667 0.799998 7 0.799998C8.25333 0.799998 9.34667 1.12 10.28 1.76C11.24 2.37333 11.9867 3.25333 12.52 4.4C13.0533 5.54667 13.32 6.88 13.32 8.4C13.32 9.92 13.0533 11.2533 12.52 12.4C11.9867 13.5467 11.24 14.44 10.28 15.08C9.34667 15.6933 8.25333 16 7 16ZM7 14.2C8.30667 14.2 9.34667 13.6933 10.12 12.68C10.92 11.64 11.32 10.2133 11.32 8.4C11.32 6.58667 10.92 5.17333 10.12 4.16C9.34667 3.12 8.30667 2.6 7 2.6C5.66667 2.6 4.61333 3.12 3.84 4.16C3.06667 5.17333 2.68 6.58667 2.68 8.4C2.68 10.2133 3.06667 11.64 3.84 12.68C4.61333 13.6933 5.66667 14.2 7 14.2ZM24.16 29.2C22.9333 29.2 21.84 28.8933 20.88 28.28C19.92 27.64 19.1733 26.7467 18.64 25.6C18.1067 24.4533 17.84 23.12 17.84 21.6C17.84 20.08 18.1067 18.7467 18.64 17.6C19.1733 16.4533 19.92 15.5733 20.88 14.96C21.84 14.32 22.9333 14 24.16 14C25.44 14 26.5467 14.32 27.48 14.96C28.44 15.5733 29.1733 16.4533 29.68 17.6C30.2133 18.7467 30.48 20.08 30.48 21.6C30.48 23.12 30.2133 24.4533 29.68 25.6C29.1733 26.7467 28.44 27.64 27.48 28.28C26.5467 28.8933 25.44 29.2 24.16 29.2ZM24.16 27.4C25.4667 27.4 26.5067 26.8933 27.28 25.88C28.08 24.84 28.48 23.4133 28.48 21.6C28.48 19.7867 28.08 18.3733 27.28 17.36C26.5067 16.32 25.4667 15.8 24.16 15.8C22.8533 15.8 21.8 16.32 21 17.36C20.2267 18.3733 19.84 19.7867 19.84 21.6C19.84 23.4133 20.2267 24.84 21 25.88C21.8 26.8933 22.8533 27.4 24.16 27.4Z" fill="black" fill-opacity="0.5"/>
</svg>
