<svg width="25" height="24" viewBox="0 0 25 24" fill="none" xmlns="http://www.w3.org/2000/svg">
<g clip-path="url(#clip0_20_8861)">
<path d="M16.0874 18.3426C16.1611 18.4558 16.203 18.5867 16.2085 18.7217C16.214 18.8567 16.183 18.9907 16.1186 19.1095C16.0543 19.2283 15.959 19.3275 15.843 19.3966C15.7269 19.4658 15.5943 19.5023 15.4592 19.5023H1.62735C1.49225 19.5023 1.35967 19.4658 1.2436 19.3966C1.12754 19.3275 1.0323 19.2283 0.967963 19.1095C0.903622 18.9907 0.872561 18.8567 0.878064 18.7217C0.883567 18.5867 0.925428 18.4558 0.999225 18.3426C2.05495 16.7176 3.60781 15.4774 5.4261 14.8073C4.42091 14.1381 3.65776 13.1632 3.2495 12.0267C2.84125 10.8902 2.80956 9.65256 3.15912 8.49669C3.50869 7.34082 4.22095 6.32813 5.19057 5.60837C6.1602 4.88861 7.33572 4.5 8.54329 4.5C9.75086 4.5 10.9264 4.88861 11.896 5.60837C12.8656 6.32813 13.5779 7.34082 13.9275 8.49669C14.277 9.65256 14.2453 10.8902 13.8371 12.0267C13.4288 13.1632 12.6657 14.1381 11.6605 14.8073C13.4788 15.4774 15.0316 16.7176 16.0874 18.3426ZM24.3289 18.3285C23.2729 16.7103 21.7235 15.4756 19.9105 14.8073C21.0972 14.0079 21.9346 12.7864 22.2524 11.3914C22.5702 9.9963 22.3444 8.53258 21.621 7.29812C20.8977 6.06366 19.7311 5.15126 18.3587 4.74662C16.9863 4.34199 15.5113 4.47554 14.2339 5.12009C14.1851 5.14532 14.1424 5.18097 14.1088 5.22452C14.0753 5.26808 14.0517 5.31848 14.0398 5.37215C14.0279 5.42581 14.028 5.48144 14.04 5.53509C14.052 5.58874 14.0756 5.6391 14.1092 5.68259C15.0591 6.86742 15.6046 8.32526 15.6658 9.84258C15.727 11.3599 15.3008 12.857 14.4495 14.1145C14.3945 14.1967 14.3742 14.2972 14.393 14.3943C14.4118 14.4914 14.4681 14.5772 14.5499 14.6329C15.6597 15.4075 16.6099 16.3889 17.3483 17.5232C17.6461 17.9793 17.7677 18.5281 17.6905 19.0673C17.6818 19.1209 17.6848 19.1758 17.6995 19.2281C17.7141 19.2805 17.7399 19.329 17.7751 19.3704C17.8103 19.4117 17.8541 19.445 17.9034 19.4677C17.9528 19.4905 18.0065 19.5023 18.0608 19.5023H23.7139C23.8791 19.5023 24.0396 19.4479 24.1706 19.3474C24.3017 19.2468 24.3959 19.1059 24.4386 18.9463C24.4647 18.8414 24.4684 18.7322 24.4495 18.6258C24.4306 18.5193 24.3895 18.4181 24.3289 18.3285Z" fill="#273E8E"/>
</g>
<defs>
<clipPath id="clip0_20_8861">
<rect width="24" height="24" fill="white" transform="translate(0.668457 0.00390625)"/>
</clipPath>
</defs>
</svg>
