<svg width="25" height="24" viewBox="0 0 25 24" fill="none" xmlns="http://www.w3.org/2000/svg">
<g clip-path="url(#clip0_9_2166)">
<path d="M16.0874 18.3453C16.1611 18.4584 16.203 18.5894 16.2085 18.7244C16.214 18.8594 16.183 18.9934 16.1186 19.1122C16.0543 19.231 15.959 19.3302 15.843 19.3993C15.7269 19.4684 15.5943 19.505 15.4592 19.505H1.62735C1.49225 19.505 1.35967 19.4684 1.2436 19.3993C1.12754 19.3302 1.0323 19.231 0.967963 19.1122C0.903622 18.9934 0.872561 18.8594 0.878064 18.7244C0.883567 18.5894 0.925428 18.4584 0.999225 18.3453C2.05495 16.7202 3.60781 15.4801 5.4261 14.81C4.42091 14.1408 3.65776 13.1659 3.2495 12.0294C2.84125 10.8929 2.80956 9.65524 3.15912 8.49938C3.50869 7.34351 4.22095 6.33082 5.19057 5.61106C6.1602 4.8913 7.33572 4.50269 8.54329 4.50269C9.75086 4.50269 10.9264 4.8913 11.896 5.61106C12.8656 6.33082 13.5779 7.34351 13.9275 8.49938C14.277 9.65524 14.2453 10.8929 13.8371 12.0294C13.4288 13.1659 12.6657 14.1408 11.6605 14.81C13.4788 15.4801 15.0316 16.7202 16.0874 18.3453ZM24.3289 18.3312C23.2729 16.713 21.7235 15.4782 19.9105 14.81C21.0972 14.0106 21.9346 12.7891 22.2524 11.394C22.5702 9.99899 22.3444 8.53526 21.621 7.30081C20.8977 6.06635 19.7311 5.15394 18.3587 4.74931C16.9863 4.34467 15.5113 4.47823 14.2339 5.12278C14.1851 5.148 14.1424 5.18365 14.1088 5.22721C14.0753 5.27076 14.0517 5.32116 14.0398 5.37483C14.0279 5.4285 14.028 5.48413 14.04 5.53778C14.052 5.59143 14.0756 5.64178 14.1092 5.68528C15.0591 6.8701 15.6046 8.32794 15.6658 9.84526C15.727 11.3626 15.3008 12.8596 14.4495 14.1172C14.3945 14.1993 14.3742 14.2999 14.393 14.397C14.4118 14.4941 14.4681 14.5799 14.5499 14.6356C15.6597 15.4102 16.6099 16.3916 17.3483 17.5259C17.6461 17.982 17.7677 18.5308 17.6905 19.07C17.6818 19.1236 17.6848 19.1785 17.6995 19.2308C17.7141 19.2831 17.7399 19.3317 17.7751 19.373C17.8103 19.4144 17.8541 19.4476 17.9034 19.4704C17.9528 19.4932 18.0065 19.505 18.0608 19.505H23.7139C23.8791 19.505 24.0396 19.4506 24.1706 19.35C24.3017 19.2495 24.3959 19.1086 24.4386 18.949C24.4647 18.8441 24.4684 18.7349 24.4495 18.6285C24.4306 18.522 24.3895 18.4207 24.3289 18.3312Z" fill="white" fill-opacity="0.7"/>
</g>
<defs>
<clipPath id="clip0_9_2166">
<rect width="24" height="24" fill="white" transform="translate(0.668457 0.00488281)"/>
</clipPath>
</defs>
</svg>
