<svg width="14" height="14" viewBox="0 0 14 14" fill="none" xmlns="http://www.w3.org/2000/svg">
<path d="M12.5599 11.9403L9.8217 9.20269C10.6153 8.24988 11.0111 7.02777 10.9266 5.79059C10.8422 4.55342 10.284 3.39644 9.3682 2.56033C8.45242 1.72423 7.24955 1.27336 6.00982 1.30154C4.77009 1.32971 3.58894 1.83476 2.71209 2.7116C1.83524 3.58845 1.3302 4.7696 1.30203 6.00933C1.27385 7.24906 1.72471 8.45193 2.56082 9.36771C3.39693 10.2835 4.55391 10.8417 5.79108 10.9261C7.02825 11.0106 8.25036 10.6149 9.20318 9.82121L11.9408 12.5594C11.9815 12.6001 12.0297 12.6323 12.0829 12.6543C12.136 12.6763 12.1929 12.6876 12.2504 12.6876C12.3079 12.6876 12.3648 12.6763 12.4179 12.6543C12.471 12.6323 12.5193 12.6001 12.5599 12.5594C12.6005 12.5188 12.6328 12.4705 12.6548 12.4174C12.6768 12.3643 12.6881 12.3074 12.6881 12.2499C12.6881 12.1924 12.6768 12.1355 12.6548 12.0824C12.6328 12.0293 12.6005 11.981 12.5599 11.9403ZM2.18787 6.12488C2.18787 5.34612 2.4188 4.58484 2.85146 3.93732C3.28412 3.2898 3.89907 2.78513 4.61855 2.48711C5.33804 2.18908 6.12974 2.11111 6.89354 2.26304C7.65734 2.41497 8.35893 2.78998 8.9096 3.34065C9.46027 3.89132 9.83528 4.59291 9.98721 5.35671C10.1391 6.12051 10.0612 6.91221 9.76315 7.6317C9.46513 8.35118 8.96045 8.96613 8.31293 9.39879C7.66541 9.83145 6.90413 10.0624 6.12537 10.0624C5.08143 10.0612 4.08059 9.64601 3.34241 8.90784C2.60424 8.16966 2.18903 7.16882 2.18787 6.12488Z" fill="black" fill-opacity="0.5"/>
</svg>
