<svg width="24" height="24" viewBox="0 0 24 24" fill="none" xmlns="http://www.w3.org/2000/svg">
<path d="M21.7382 10.6865L5.98822 1.69679C5.72255 1.54724 5.41762 1.48218 5.11405 1.5103C4.81048 1.53841 4.52268 1.65836 4.289 1.85417C4.05532 2.04997 3.88685 2.31233 3.80604 2.60629C3.72523 2.90026 3.7359 3.21187 3.83665 3.49961L6.70822 11.999L3.83665 20.4993C3.75674 20.7255 3.73224 20.9675 3.76521 21.2052C3.79819 21.4428 3.88767 21.669 4.02616 21.8649C4.16465 22.0608 4.3481 22.2206 4.56112 22.3309C4.77414 22.4413 5.01051 22.4989 5.2504 22.499C5.51103 22.4984 5.7671 22.4306 5.99384 22.3021L21.7363 13.2974C21.9685 13.1673 22.162 12.9778 22.2967 12.7483C22.4315 12.5188 22.5028 12.2576 22.5033 11.9914C22.5037 11.7253 22.4334 11.4638 22.2994 11.2338C22.1655 11.0038 21.9728 10.8136 21.741 10.6827L21.7382 10.6865ZM5.2504 20.999C5.25081 20.9952 5.25081 20.9915 5.2504 20.9877L8.03853 12.749H13.5004C13.6993 12.749 13.8901 12.67 14.0307 12.5293C14.1714 12.3887 14.2504 12.1979 14.2504 11.999C14.2504 11.8001 14.1714 11.6093 14.0307 11.4687C13.8901 11.328 13.6993 11.249 13.5004 11.249H8.03853L5.25603 3.01398C5.25511 3.00867 5.2532 3.00359 5.2504 2.99898L21.0004 11.983L5.2504 20.999Z" fill="black"/>
</svg>
