<svg width="22" height="21" viewBox="0 0 22 21" fill="none" xmlns="http://www.w3.org/2000/svg">
<path d="M20.8891 8.381C20.8682 8.27538 20.8248 8.1755 20.7619 8.08815C20.699 8.00079 20.618 7.92801 20.5244 7.87475L17.7278 6.281L17.7166 3.12912C17.7162 3.02057 17.6923 2.91339 17.6465 2.81498C17.6007 2.71657 17.5341 2.62927 17.4513 2.55912C16.4368 1.70103 15.2686 1.04343 14.0088 0.62131C13.9096 0.587729 13.8044 0.575301 13.7001 0.584828C13.5958 0.594355 13.4946 0.625624 13.4031 0.676623L10.5822 2.2535L7.75846 0.67381C7.66692 0.622524 7.56563 0.591019 7.46115 0.581329C7.35666 0.57164 7.25131 0.583983 7.1519 0.61756C5.89281 1.0424 4.72587 1.70253 3.71315 2.56287C3.63043 2.63292 3.56388 2.72006 3.51808 2.8183C3.47227 2.91654 3.44831 3.02354 3.44783 3.13194L3.43377 6.28662L0.63721 7.88037C0.543649 7.93364 0.462651 8.00642 0.399724 8.09377C0.336796 8.18113 0.293413 8.28101 0.272522 8.38662C0.0165811 9.67276 0.0165811 10.9967 0.272522 12.2829C0.293413 12.3885 0.336796 12.4884 0.399724 12.5757C0.462651 12.6631 0.543649 12.7359 0.63721 12.7891L3.43377 14.3829L3.44502 17.5357C3.44536 17.6442 3.46926 17.7514 3.51507 17.8498C3.56087 17.9482 3.6275 18.0355 3.71033 18.1057C4.72478 18.9638 5.89298 19.6214 7.15283 20.0435C7.25205 20.0771 7.3572 20.0895 7.4615 20.08C7.56581 20.0705 7.66697 20.0392 7.75846 19.9882L10.5822 18.4066L13.406 19.9863C13.5177 20.0486 13.6437 20.0809 13.7716 20.0801C13.8535 20.08 13.9349 20.0667 14.0125 20.0407C15.2713 19.616 16.4382 18.9566 17.4513 18.0972C17.534 18.0272 17.6005 17.9401 17.6463 17.8418C17.6921 17.7436 17.7161 17.6366 17.7166 17.5282L17.7306 14.3735L20.5272 12.7797C20.6208 12.7265 20.7018 12.6537 20.7647 12.5663C20.8276 12.479 20.871 12.3791 20.8919 12.2735C21.1464 10.9884 21.1455 9.66574 20.8891 8.381ZM10.5822 14.0801C9.84053 14.0801 9.11551 13.8601 8.49882 13.4481C7.88214 13.036 7.40149 12.4503 7.11766 11.7651C6.83383 11.0799 6.75957 10.3259 6.90426 9.59847C7.04896 8.87104 7.40611 8.20286 7.93056 7.67841C8.45501 7.15396 9.12319 6.79681 9.85062 6.65211C10.578 6.50742 11.332 6.58168 12.0173 6.86551C12.7025 7.14934 13.2882 7.62999 13.7002 8.24667C14.1123 8.86336 14.3322 9.58838 14.3322 10.3301C14.3322 11.3246 13.9371 12.2784 13.2339 12.9817C12.5306 13.685 11.5768 14.0801 10.5822 14.0801Z" fill="white" fill-opacity="0.7"/>
</svg>
