<svg width="25" height="25" viewBox="0 0 25 25" fill="none" xmlns="http://www.w3.org/2000/svg">
<path d="M22.8891 10.381C22.8682 10.2754 22.8248 10.1755 22.7619 10.0881C22.699 10.0008 22.618 9.92801 22.5244 9.87475L19.7278 8.281L19.7166 5.12912C19.7162 5.02057 19.6923 4.91339 19.6465 4.81498C19.6007 4.71657 19.5341 4.62927 19.4513 4.55912C18.4368 3.70103 17.2686 3.04343 16.0088 2.62131C15.9096 2.58773 15.8044 2.5753 15.7001 2.58483C15.5958 2.59435 15.4946 2.62562 15.4031 2.67662L12.5822 4.2535L9.75846 2.67381C9.66692 2.62252 9.56563 2.59102 9.46115 2.58133C9.35666 2.57164 9.25131 2.58398 9.1519 2.61756C7.89281 3.0424 6.72587 3.70253 5.71315 4.56287C5.63043 4.63292 5.56388 4.72006 5.51808 4.8183C5.47227 4.91654 5.44831 5.02354 5.44783 5.13194L5.43377 8.28662L2.63721 9.88037C2.54365 9.93364 2.46265 10.0064 2.39972 10.0938C2.3368 10.1811 2.29341 10.281 2.27252 10.3866C2.01658 11.6728 2.01658 12.9967 2.27252 14.2829C2.29341 14.3885 2.3368 14.4884 2.39972 14.5757C2.46265 14.6631 2.54365 14.7359 2.63721 14.7891L5.43377 16.3829L5.44502 19.5357C5.44536 19.6442 5.46926 19.7514 5.51507 19.8498C5.56087 19.9482 5.6275 20.0355 5.71033 20.1057C6.72478 20.9638 7.89298 21.6214 9.15283 22.0435C9.25205 22.0771 9.3572 22.0895 9.4615 22.08C9.56581 22.0705 9.66697 22.0392 9.75846 21.9882L12.5822 20.4066L15.406 21.9863C15.5177 22.0486 15.6437 22.0809 15.7716 22.0801C15.8535 22.08 15.9349 22.0667 16.0125 22.0407C17.2713 21.616 18.4382 20.9566 19.4513 20.0972C19.534 20.0272 19.6005 19.9401 19.6463 19.8418C19.6921 19.7436 19.7161 19.6366 19.7166 19.5282L19.7306 16.3735L22.5272 14.7797C22.6208 14.7265 22.7018 14.6537 22.7647 14.5663C22.8276 14.479 22.871 14.3791 22.8919 14.2735C23.1464 12.9884 23.1455 11.6657 22.8891 10.381ZM12.5822 16.0801C11.8405 16.0801 11.1155 15.8601 10.4988 15.4481C9.88214 15.036 9.40149 14.4503 9.11766 13.7651C8.83383 13.0799 8.75957 12.3259 8.90426 11.5985C9.04896 10.871 9.40611 10.2029 9.93056 9.67841C10.455 9.15396 11.1232 8.79681 11.8506 8.65211C12.578 8.50742 13.332 8.58168 14.0173 8.86551C14.7025 9.14934 15.2882 9.62999 15.7002 10.2467C16.1123 10.8634 16.3322 11.5884 16.3322 12.3301C16.3322 13.3246 15.9371 14.2784 15.2339 14.9817C14.5306 15.685 13.5768 16.0801 12.5822 16.0801Z" fill="#273E8E"/>
</svg>
