<svg width="25" height="25" viewBox="0 0 25 25" fill="none" xmlns="http://www.w3.org/2000/svg">
<path d="M22.0886 9.06471L20.7442 4.35752C20.6538 4.04525 20.4648 3.77061 20.2054 3.57461C19.9461 3.3786 19.6303 3.27176 19.3052 3.27002H5.43018C5.10508 3.27176 4.78928 3.3786 4.52991 3.57461C4.27054 3.77061 4.08154 4.04525 3.99111 4.35752L2.64674 9.06471C2.62752 9.13145 2.61774 9.20056 2.61768 9.27002V10.77C2.61768 11.3522 2.75322 11.9264 3.01357 12.4471C3.27393 12.9678 3.65194 13.4207 4.11768 13.77V20.52C4.11768 20.7189 4.19669 20.9097 4.33735 21.0504C4.478 21.191 4.66876 21.27 4.86768 21.27H19.8677C20.0666 21.27 20.2574 21.191 20.398 21.0504C20.5387 20.9097 20.6177 20.7189 20.6177 20.52V13.77C21.0834 13.4207 21.4614 12.9678 21.7218 12.4471C21.9821 11.9264 22.1177 11.3522 22.1177 10.77V9.27002C22.1176 9.20056 22.1078 9.13145 22.0886 9.06471ZM8.61768 10.77C8.61754 11.1569 8.51763 11.5373 8.3276 11.8743C8.13758 12.2113 7.86385 12.4937 7.53286 12.694C7.20187 12.8944 6.8248 13.006 6.43808 13.0181C6.05136 13.0302 5.66805 12.9424 5.32518 12.7631C5.273 12.7225 5.21562 12.6891 5.15455 12.6638C4.83681 12.4604 4.57532 12.1803 4.39413 11.8494C4.21294 11.5185 4.11788 11.1473 4.11768 10.77V10.02H8.61768V10.77ZM14.6177 10.77C14.6177 11.3668 14.3806 11.9391 13.9587 12.361C13.5367 12.783 12.9644 13.02 12.3677 13.02C11.7709 13.02 11.1986 12.783 10.7767 12.361C10.3547 11.9391 10.1177 11.3668 10.1177 10.77V10.02H14.6177V10.77ZM20.6177 10.77C20.6174 11.1474 20.5222 11.5186 20.3408 11.8495C20.1595 12.1805 19.8978 12.4605 19.5799 12.6638C19.5196 12.6892 19.4629 12.7222 19.4111 12.7622C19.0683 12.9417 18.685 13.0297 18.2982 13.0177C17.9114 13.0058 17.5342 12.8943 17.2031 12.694C16.872 12.4937 16.5982 12.2114 16.408 11.8744C16.2179 11.5374 16.1179 11.157 16.1177 10.77V10.02H20.6177V10.77Z" fill="white" fill-opacity="0.7"/>
</svg>
