<svg width="25" height="25" viewBox="0 0 25 25" fill="none" xmlns="http://www.w3.org/2000/svg">
<path d="M22.0886 9.06422L20.7442 4.35703C20.6538 4.04476 20.4648 3.77012 20.2054 3.57412C19.9461 3.37812 19.6303 3.27127 19.3052 3.26953H5.43018C5.10508 3.27127 4.78928 3.37812 4.52991 3.57412C4.27054 3.77012 4.08154 4.04476 3.99111 4.35703L2.64674 9.06422C2.62752 9.13096 2.61774 9.20007 2.61768 9.26953V10.7695C2.61768 11.3517 2.75322 11.9259 3.01357 12.4466C3.27393 12.9673 3.65194 13.4202 4.11768 13.7695V20.5195C4.11768 20.7184 4.19669 20.9092 4.33735 21.0499C4.478 21.1905 4.66876 21.2695 4.86768 21.2695H19.8677C20.0666 21.2695 20.2574 21.1905 20.398 21.0499C20.5387 20.9092 20.6177 20.7184 20.6177 20.5195V13.7695C21.0834 13.4202 21.4614 12.9673 21.7218 12.4466C21.9821 11.9259 22.1177 11.3517 22.1177 10.7695V9.26953C22.1176 9.20007 22.1078 9.13096 22.0886 9.06422ZM8.61768 10.7695C8.61754 11.1564 8.51763 11.5368 8.3276 11.8738C8.13758 12.2108 7.86385 12.4932 7.53286 12.6935C7.20187 12.8939 6.8248 13.0055 6.43808 13.0176C6.05136 13.0297 5.66805 12.9419 5.32518 12.7627C5.273 12.722 5.21562 12.6886 5.15455 12.6633C4.83681 12.4599 4.57532 12.1798 4.39413 11.8489C4.21294 11.518 4.11788 11.1468 4.11768 10.7695V10.0195H8.61768V10.7695ZM14.6177 10.7695C14.6177 11.3663 14.3806 11.9386 13.9587 12.3605C13.5367 12.7825 12.9644 13.0195 12.3677 13.0195C11.7709 13.0195 11.1986 12.7825 10.7767 12.3605C10.3547 11.9386 10.1177 11.3663 10.1177 10.7695V10.0195H14.6177V10.7695ZM20.6177 10.7695C20.6174 11.1469 20.5222 11.5181 20.3408 11.849C20.1595 12.18 19.8978 12.46 19.5799 12.6633C19.5196 12.6887 19.4629 12.7218 19.4111 12.7617C19.0683 12.9412 18.685 13.0292 18.2982 13.0172C17.9114 13.0053 17.5342 12.8938 17.2031 12.6935C16.872 12.4932 16.5982 12.2109 16.408 11.8739C16.2179 11.5369 16.1179 11.1565 16.1177 10.7695V10.0195H20.6177V10.7695Z" fill="#273E8E"/>
</svg>
