<svg width="25" height="25" viewBox="0 0 25 25" fill="none" xmlns="http://www.w3.org/2000/svg">
<path d="M22.5342 9.96094C22.7331 9.96094 22.9239 9.88192 23.0645 9.74127C23.2052 9.60062 23.2842 9.40985 23.2842 9.21094V6.21094C23.2842 5.81311 23.1261 5.43158 22.8448 5.15028C22.5635 4.86897 22.182 4.71094 21.7842 4.71094H3.78418C3.38635 4.71094 3.00482 4.86897 2.72352 5.15028C2.44221 5.43158 2.28418 5.81311 2.28418 6.21094V9.21094C2.28418 9.40985 2.3632 9.60062 2.50385 9.74127C2.6445 9.88192 2.83527 9.96094 3.03418 9.96094C3.63092 9.96094 4.20321 10.198 4.62517 10.6199C5.04713 11.0419 5.28418 11.6142 5.28418 12.2109C5.28418 12.8077 5.04713 13.38 4.62517 13.8019C4.20321 14.2239 3.63092 14.4609 3.03418 14.4609C2.83527 14.4609 2.6445 14.54 2.50385 14.6806C2.3632 14.8213 2.28418 15.012 2.28418 15.2109V18.2109C2.28418 18.6088 2.44221 18.9903 2.72352 19.2716C3.00482 19.5529 3.38635 19.7109 3.78418 19.7109H21.7842C22.182 19.7109 22.5635 19.5529 22.8448 19.2716C23.1261 18.9903 23.2842 18.6088 23.2842 18.2109V15.2109C23.2842 15.012 23.2052 14.8213 23.0645 14.6806C22.9239 14.54 22.7331 14.4609 22.5342 14.4609C21.9374 14.4609 21.3651 14.2239 20.9432 13.8019C20.5212 13.38 20.2842 12.8077 20.2842 12.2109C20.2842 11.6142 20.5212 11.0419 20.9432 10.6199C21.3651 10.198 21.9374 9.96094 22.5342 9.96094ZM3.78418 15.8859C4.6319 15.7138 5.39404 15.2539 5.94146 14.5841C6.48889 13.9144 6.78794 13.076 6.78794 12.2109C6.78794 11.3459 6.48889 10.5075 5.94146 9.83774C5.39404 9.16798 4.6319 8.70807 3.78418 8.53594V6.21094H9.03418V18.2109H3.78418V15.8859Z" fill="#273E8E"/>
</svg>
