<svg width="25" height="25" viewBox="0 0 25 25" fill="none" xmlns="http://www.w3.org/2000/svg">
<path d="M22.5342 9.96289C22.7331 9.96289 22.9239 9.88387 23.0645 9.74322C23.2052 9.60257 23.2842 9.4118 23.2842 9.21289V6.21289C23.2842 5.81507 23.1261 5.43353 22.8448 5.15223C22.5635 4.87093 22.182 4.71289 21.7842 4.71289H3.78418C3.38635 4.71289 3.00482 4.87093 2.72352 5.15223C2.44221 5.43353 2.28418 5.81507 2.28418 6.21289V9.21289C2.28418 9.4118 2.3632 9.60257 2.50385 9.74322C2.6445 9.88387 2.83527 9.96289 3.03418 9.96289C3.63092 9.96289 4.20321 10.1999 4.62517 10.6219C5.04713 11.0439 5.28418 11.6162 5.28418 12.2129C5.28418 12.8096 5.04713 13.3819 4.62517 13.8039C4.20321 14.2258 3.63092 14.4629 3.03418 14.4629C2.83527 14.4629 2.6445 14.5419 2.50385 14.6826C2.3632 14.8232 2.28418 15.014 2.28418 15.2129V18.2129C2.28418 18.6107 2.44221 18.9922 2.72352 19.2736C3.00482 19.5549 3.38635 19.7129 3.78418 19.7129H21.7842C22.182 19.7129 22.5635 19.5549 22.8448 19.2736C23.1261 18.9922 23.2842 18.6107 23.2842 18.2129V15.2129C23.2842 15.014 23.2052 14.8232 23.0645 14.6826C22.9239 14.5419 22.7331 14.4629 22.5342 14.4629C21.9374 14.4629 21.3651 14.2258 20.9432 13.8039C20.5212 13.3819 20.2842 12.8096 20.2842 12.2129C20.2842 11.6162 20.5212 11.0439 20.9432 10.6219C21.3651 10.1999 21.9374 9.96289 22.5342 9.96289ZM3.78418 15.8879C4.6319 15.7158 5.39404 15.2558 5.94146 14.5861C6.48889 13.9163 6.78794 13.0779 6.78794 12.2129C6.78794 11.3479 6.48889 10.5095 5.94146 9.8397C5.39404 9.16994 4.6319 8.71003 3.78418 8.53789V6.21289H9.03418V18.2129H3.78418V15.8879Z" fill="white" fill-opacity="0.7"/>
</svg>
