<svg width="25" height="25" viewBox="0 0 25 25" fill="none" xmlns="http://www.w3.org/2000/svg">
<path d="M20.4614 3.08691H18.2114V2.33691C18.2114 2.138 18.1324 1.94724 17.9918 1.80658C17.8511 1.66593 17.6603 1.58691 17.4614 1.58691C17.2625 1.58691 17.0717 1.66593 16.9311 1.80658C16.7904 1.94724 16.7114 2.138 16.7114 2.33691V3.08691H13.7114V2.33691C13.7114 2.138 13.6324 1.94724 13.4918 1.80658C13.3511 1.66593 13.1603 1.58691 12.9614 1.58691C12.7625 1.58691 12.5717 1.66593 12.4311 1.80658C12.2904 1.94724 12.2114 2.138 12.2114 2.33691V3.08691H9.21143V2.33691C9.21143 2.138 9.13241 1.94724 8.99176 1.80658C8.8511 1.66593 8.66034 1.58691 8.46143 1.58691C8.26251 1.58691 8.07175 1.66593 7.9311 1.80658C7.79044 1.94724 7.71143 2.138 7.71143 2.33691V3.08691H5.46143C5.26251 3.08691 5.07175 3.16593 4.9311 3.30658C4.79044 3.44724 4.71143 3.638 4.71143 3.83691V18.8369C4.71143 19.6326 5.0275 20.3956 5.59011 20.9582C6.15271 21.5208 6.91578 21.8369 7.71143 21.8369H18.2114C19.0071 21.8369 19.7701 21.5208 20.3327 20.9582C20.8954 20.3956 21.2114 19.6326 21.2114 18.8369V3.83691C21.2114 3.638 21.1324 3.44724 20.9918 3.30658C20.8511 3.16593 20.6603 3.08691 20.4614 3.08691ZM12.2114 5.33691C12.2114 5.138 12.2904 4.94724 12.4311 4.80658C12.5717 4.66593 12.7625 4.58691 12.9614 4.58691C13.1603 4.58691 13.3511 4.66593 13.4918 4.80658C13.6324 4.94724 13.7114 5.138 13.7114 5.33691V6.08691C13.7114 6.28583 13.6324 6.47659 13.4918 6.61724C13.3511 6.7579 13.1603 6.83691 12.9614 6.83691C12.7625 6.83691 12.5717 6.7579 12.4311 6.61724C12.2904 6.47659 12.2114 6.28583 12.2114 6.08691V5.33691ZM8.46143 6.83691C8.26251 6.83691 8.07175 6.7579 7.9311 6.61724C7.79044 6.47659 7.71143 6.28583 7.71143 6.08691V5.33691C7.71143 5.138 7.79044 4.94724 7.9311 4.80658C8.07175 4.66593 8.26251 4.58691 8.46143 4.58691C8.66034 4.58691 8.8511 4.66593 8.99176 4.80658C9.13241 4.94724 9.21143 5.138 9.21143 5.33691V6.08691C9.21143 6.28583 9.13241 6.47659 8.99176 6.61724C8.8511 6.7579 8.66034 6.83691 8.46143 6.83691ZM15.9614 15.8369H9.96143C9.76251 15.8369 9.57175 15.7579 9.4311 15.6172C9.29044 15.4766 9.21143 15.2858 9.21143 15.0869C9.21143 14.888 9.29044 14.6972 9.4311 14.5566C9.57175 14.4159 9.76251 14.3369 9.96143 14.3369H15.9614C16.1603 14.3369 16.3511 14.4159 16.4918 14.5566C16.6324 14.6972 16.7114 14.888 16.7114 15.0869C16.7114 15.2858 16.6324 15.4766 16.4918 15.6172C16.3511 15.7579 16.1603 15.8369 15.9614 15.8369ZM15.9614 12.8369H9.96143C9.76251 12.8369 9.57175 12.7579 9.4311 12.6172C9.29044 12.4766 9.21143 12.2858 9.21143 12.0869C9.21143 11.888 9.29044 11.6972 9.4311 11.5566C9.57175 11.4159 9.76251 11.3369 9.96143 11.3369H15.9614C16.1603 11.3369 16.3511 11.4159 16.4918 11.5566C16.6324 11.6972 16.7114 11.888 16.7114 12.0869C16.7114 12.2858 16.6324 12.4766 16.4918 12.6172C16.3511 12.7579 16.1603 12.8369 15.9614 12.8369ZM18.2114 6.08691C18.2114 6.28583 18.1324 6.47659 17.9918 6.61724C17.8511 6.7579 17.6603 6.83691 17.4614 6.83691C17.2625 6.83691 17.0717 6.7579 16.9311 6.61724C16.7904 6.47659 16.7114 6.28583 16.7114 6.08691V5.33691C16.7114 5.138 16.7904 4.94724 16.9311 4.80658C17.0717 4.66593 17.2625 4.58691 17.4614 4.58691C17.6603 4.58691 17.8511 4.66593 17.9918 4.80658C18.1324 4.94724 18.2114 5.138 18.2114 5.33691V6.08691Z" fill="white" fill-opacity="0.7"/>
</svg>
