<svg width="25" height="25" viewBox="0 0 25 25" fill="none" xmlns="http://www.w3.org/2000/svg">
<path d="M20.4614 3.08594H18.2114V2.33594C18.2114 2.13703 18.1324 1.94626 17.9918 1.80561C17.8511 1.66496 17.6603 1.58594 17.4614 1.58594C17.2625 1.58594 17.0717 1.66496 16.9311 1.80561C16.7904 1.94626 16.7114 2.13703 16.7114 2.33594V3.08594H13.7114V2.33594C13.7114 2.13703 13.6324 1.94626 13.4918 1.80561C13.3511 1.66496 13.1603 1.58594 12.9614 1.58594C12.7625 1.58594 12.5717 1.66496 12.4311 1.80561C12.2904 1.94626 12.2114 2.13703 12.2114 2.33594V3.08594H9.21143V2.33594C9.21143 2.13703 9.13241 1.94626 8.99176 1.80561C8.8511 1.66496 8.66034 1.58594 8.46143 1.58594C8.26251 1.58594 8.07175 1.66496 7.9311 1.80561C7.79044 1.94626 7.71143 2.13703 7.71143 2.33594V3.08594H5.46143C5.26251 3.08594 5.07175 3.16496 4.9311 3.30561C4.79044 3.44626 4.71143 3.63703 4.71143 3.83594V18.8359C4.71143 19.6316 5.0275 20.3946 5.59011 20.9573C6.15271 21.5199 6.91578 21.8359 7.71143 21.8359H18.2114C19.0071 21.8359 19.7701 21.5199 20.3327 20.9573C20.8954 20.3946 21.2114 19.6316 21.2114 18.8359V3.83594C21.2114 3.63703 21.1324 3.44626 20.9918 3.30561C20.8511 3.16496 20.6603 3.08594 20.4614 3.08594ZM12.2114 5.33594C12.2114 5.13703 12.2904 4.94626 12.4311 4.80561C12.5717 4.66496 12.7625 4.58594 12.9614 4.58594C13.1603 4.58594 13.3511 4.66496 13.4918 4.80561C13.6324 4.94626 13.7114 5.13703 13.7114 5.33594V6.08594C13.7114 6.28485 13.6324 6.47562 13.4918 6.61627C13.3511 6.75692 13.1603 6.83594 12.9614 6.83594C12.7625 6.83594 12.5717 6.75692 12.4311 6.61627C12.2904 6.47562 12.2114 6.28485 12.2114 6.08594V5.33594ZM8.46143 6.83594C8.26251 6.83594 8.07175 6.75692 7.9311 6.61627C7.79044 6.47562 7.71143 6.28485 7.71143 6.08594V5.33594C7.71143 5.13703 7.79044 4.94626 7.9311 4.80561C8.07175 4.66496 8.26251 4.58594 8.46143 4.58594C8.66034 4.58594 8.8511 4.66496 8.99176 4.80561C9.13241 4.94626 9.21143 5.13703 9.21143 5.33594V6.08594C9.21143 6.28485 9.13241 6.47562 8.99176 6.61627C8.8511 6.75692 8.66034 6.83594 8.46143 6.83594ZM15.9614 15.8359H9.96143C9.76251 15.8359 9.57175 15.7569 9.4311 15.6163C9.29044 15.4756 9.21143 15.2849 9.21143 15.0859C9.21143 14.887 9.29044 14.6963 9.4311 14.5556C9.57175 14.415 9.76251 14.3359 9.96143 14.3359H15.9614C16.1603 14.3359 16.3511 14.415 16.4918 14.5556C16.6324 14.6963 16.7114 14.887 16.7114 15.0859C16.7114 15.2849 16.6324 15.4756 16.4918 15.6163C16.3511 15.7569 16.1603 15.8359 15.9614 15.8359ZM15.9614 12.8359H9.96143C9.76251 12.8359 9.57175 12.7569 9.4311 12.6163C9.29044 12.4756 9.21143 12.2849 9.21143 12.0859C9.21143 11.887 9.29044 11.6963 9.4311 11.5556C9.57175 11.415 9.76251 11.3359 9.96143 11.3359H15.9614C16.1603 11.3359 16.3511 11.415 16.4918 11.5556C16.6324 11.6963 16.7114 11.887 16.7114 12.0859C16.7114 12.2849 16.6324 12.4756 16.4918 12.6163C16.3511 12.7569 16.1603 12.8359 15.9614 12.8359ZM18.2114 6.08594C18.2114 6.28485 18.1324 6.47562 17.9918 6.61627C17.8511 6.75692 17.6603 6.83594 17.4614 6.83594C17.2625 6.83594 17.0717 6.75692 16.9311 6.61627C16.7904 6.47562 16.7114 6.28485 16.7114 6.08594V5.33594C16.7114 5.13703 16.7904 4.94626 16.9311 4.80561C17.0717 4.66496 17.2625 4.58594 17.4614 4.58594C17.6603 4.58594 17.8511 4.66496 17.9918 4.80561C18.1324 4.94626 18.2114 5.13703 18.2114 5.33594V6.08594Z" fill="#273E8E"/>
</svg>
