<svg width="33" height="33" viewBox="0 0 33 33" fill="none" xmlns="http://www.w3.org/2000/svg">
<path d="M4.9399 12.6187V7.36969L4.51709 7.39547V4.1625L8.59568 4.13672V7.3207H8.17287V10.4041L4.9399 12.6187Z" fill="#AB5832"/>
<path d="M16.5285 6.01562L4.81348 17.7873L4.90371 28.6696L28.0424 28.4505L28.0759 16.8489L16.5285 6.01562Z" fill="#FFF3E1"/>
<path d="M4.375 26.7596L5.18453 26.3136V17.5273L4.43172 18.0301C4.42914 18.0301 4.51422 26.7596 4.375 26.7596ZM27.6374 18.0017V26.2595L28.447 26.7055V18.3085L27.6374 18.0017Z" fill="#5F4E47"/>
<path d="M16.6083 7.27414L4.4292 18.672V15.7974L16.6212 4.25L28.447 16.4961V18.9221L16.6083 7.27414Z" fill="#BCAA93"/>
<path d="M3.23563 15.302L2.52148 16.6194L4.43703 16.591C4.43703 16.591 16.3866 4.96883 16.6445 4.95852C16.9564 4.94562 28.442 16.7947 28.442 16.7947L30.1409 16.7689L17.3947 3.03781L15.523 2.91406L3.23563 15.302Z" fill="#AB5832"/>
<path d="M1.03114 16.2918C0.83005 16.5367 1.02857 16.6656 1.19099 16.6656C1.35341 16.6656 3.22513 16.6114 3.22513 16.6114L16.1261 4.05856C16.1261 4.05856 16.4225 3.75434 16.634 3.76465C16.8634 3.77496 17.1599 4.06629 17.1599 4.06629L30.1227 16.7739C30.1227 16.7739 31.6 16.779 31.8346 16.7197C32.0898 16.6579 31.9609 16.4155 31.6464 16.0778C31.4143 15.8277 18.3097 2.86488 18.0932 2.64059C17.4486 1.97543 17.1341 1.58871 16.5257 1.61449C15.9147 1.64028 15.5537 2.09145 14.9427 2.65348C14.7622 2.82363 1.11622 16.1886 1.03114 16.2918Z" fill="#ED6C31"/>
<path d="M24.1054 20.8375H26.748V18.6384C26.748 18.5412 26.7288 18.445 26.6917 18.3552C26.6545 18.2654 26.6 18.1839 26.5313 18.1152C26.4626 18.0464 26.381 17.9919 26.2912 17.9548C26.2015 17.9176 26.1052 17.8984 26.0081 17.8984H24.1054V20.8375ZM23.3113 20.8375V17.8984H21.2488C21.1517 17.8984 21.0555 17.9176 20.9657 17.9548C20.8759 17.9919 20.7944 18.0464 20.7256 18.1152C20.6569 18.1839 20.6024 18.2654 20.5652 18.3552C20.5281 18.445 20.5089 18.5412 20.5089 18.6384V20.8401H23.3113V20.8375ZM23.3113 21.6728H20.5089V23.7353C20.5089 23.9316 20.5869 24.1198 20.7256 24.2585C20.8644 24.3973 21.0526 24.4752 21.2488 24.4752H23.3113V21.6728ZM24.1054 21.6728V24.4752H26.0081C26.2043 24.4752 26.3925 24.3973 26.5313 24.2585C26.67 24.1198 26.748 23.9316 26.748 23.7353V21.6728H24.1054ZM9.47455 20.8375H12.1171V18.6384C12.1171 18.5412 12.098 18.445 12.0608 18.3552C12.0236 18.2654 11.9691 18.1839 11.9004 18.1152C11.8317 18.0464 11.7501 17.9919 11.6604 17.9548C11.5706 17.9176 11.4744 17.8984 11.3772 17.8984H9.47455V20.8375ZM8.67791 20.8375V17.8984H6.61541C6.51824 17.8984 6.42203 17.9176 6.33225 17.9548C6.24248 17.9919 6.16091 18.0464 6.09221 18.1152C6.0235 18.1839 5.969 18.2654 5.93181 18.3552C5.89463 18.445 5.87549 18.5412 5.87549 18.6384V20.8401H8.67791V20.8375ZM8.67791 21.6728H5.87807V23.7353C5.87807 23.9316 5.95602 24.1198 6.09478 24.2585C6.23355 24.3973 6.42175 24.4752 6.61799 24.4752H8.68049V21.6728H8.67791ZM9.47455 21.6728V24.4752H11.3772C11.5734 24.4752 11.7616 24.3973 11.9004 24.2585C12.0392 24.1198 12.1171 23.9316 12.1171 23.7353V21.6728H9.47455Z" fill="#A6CFD5"/>
<path d="M12.9781 27.5151C12.9781 27.5151 12.9395 21.1368 12.9781 19.5255C13.0168 17.9167 14.5276 16.5246 16.2781 16.5839C18.4437 16.6586 19.5575 17.8755 19.6374 19.4456C19.7173 21.0157 19.7173 27.6131 19.7173 27.6131L12.9781 27.5151Z" fill="#D27857"/>
<path d="M13.7852 27.8613C13.7852 27.8613 13.7543 21.0654 13.7852 19.8073C13.8239 18.2475 14.9995 17.4277 16.3659 17.505C17.9566 17.5952 18.743 18.4409 18.8048 19.6706C18.8667 20.8978 18.8667 27.8665 18.8667 27.8665L13.7852 27.8613Z" fill="#AB5932"/>
<path d="M18.0443 22.3211C18.0392 21.2022 18.0289 20.2147 18.0134 19.9131C17.9721 19.101 17.3946 18.4693 16.2732 18.4307C15.3682 18.3997 14.6232 19.1061 14.6025 19.9389C14.5948 20.2457 14.5974 21.2099 14.6025 22.3082L18.0443 22.3211ZM14.6103 23.5766C14.6206 25.0745 14.6335 26.4538 14.6335 26.4538L18.0546 26.4641C18.0546 26.4641 18.0546 25.09 18.0495 23.5921L14.6103 23.5766Z" fill="#D27857"/>
<path d="M18.0545 22.8981C18.0416 23.2617 18.1885 23.5556 18.6191 23.5556C19.0496 23.5556 19.2069 23.3545 19.2378 22.9652C19.2636 22.6171 19.0239 22.3078 18.6191 22.3335C18.2169 22.3619 18.0648 22.6429 18.0545 22.8981Z" fill="#FFBA02"/>
<path d="M20.5243 29.9843C20.5243 29.9843 23.3293 30.0127 25.3557 29.9534C27.3821 29.8941 28.8491 29.9843 29.1507 29.6801C29.4524 29.3785 29.4472 26.8081 28.0421 26.112C26.7505 25.4726 25.9152 26.1223 25.4718 26.1661C24.8865 26.2254 24.1621 25.8619 23.631 25.8516C21.437 25.8052 20.6687 27.53 20.6687 27.53L20.5243 29.9843ZM3.74589 29.7729C3.9805 29.9921 5.7723 29.9998 7.93535 29.9843C10.0984 29.9689 11.8386 29.9895 11.8386 29.9895L12.1996 27.8058L11.7613 27.4423C11.7613 27.4423 11.8103 26.3492 10.431 25.9754C9.47706 25.7175 8.64691 26.1429 7.84511 26.1558C7.04331 26.1713 6.30339 25.8078 5.41136 26.0192C4.58121 26.2151 3.9341 26.7565 3.67113 27.8497C3.48808 28.6076 3.53449 29.5744 3.74589 29.7729Z" fill="#728037"/>
<path d="M11.5811 32.269L11.5991 29.9873H11.7667L11.7641 27.4453H20.7179L20.687 29.9873H20.8829V32.2097C20.8804 32.2071 11.5811 32.2819 11.5811 32.269Z" fill="#B0B0B0"/>
<path d="M20.88 31.2739V32.2098L11.5781 32.2716L11.5859 31.2662L20.88 31.2739ZM11.7612 29L20.6944 29.0026V29.9874H11.7612V29Z" fill="#9B9B9B"/>
</svg>
