<svg width="45" height="44" viewBox="0 0 45 44" fill="none" xmlns="http://www.w3.org/2000/svg">
<path d="M37.625 6.875H7.375C6.64565 6.875 5.94618 7.16473 5.43046 7.68046C4.91473 8.19618 4.625 8.89565 4.625 9.625V34.375C4.625 35.1043 4.91473 35.8038 5.43046 36.3195C5.94618 36.8353 6.64565 37.125 7.375 37.125H37.625C38.3543 37.125 39.0538 36.8353 39.5695 36.3195C40.0853 35.8038 40.375 35.1043 40.375 34.375V9.625C40.375 8.89565 40.0853 8.19618 39.5695 7.68046C39.0538 7.16473 38.3543 6.875 37.625 6.875ZM37.625 9.625V27.2852L33.1442 22.8061C32.8888 22.5507 32.5857 22.348 32.252 22.2098C31.9183 22.0716 31.5606 22.0004 31.1995 22.0004C30.8383 22.0004 30.4806 22.0716 30.1469 22.2098C29.8132 22.348 29.5101 22.5507 29.2547 22.8061L25.8172 26.2436L18.2547 18.6811C17.739 18.1658 17.0398 17.8763 16.3108 17.8763C15.5817 17.8763 14.8825 18.1658 14.3669 18.6811L7.375 25.673V9.625H37.625ZM7.375 29.5625L16.3125 20.625L30.0625 34.375H7.375V29.5625ZM37.625 34.375H33.952L27.7645 28.1875L31.202 24.75L37.625 31.1747V34.375ZM25.25 17.1875C25.25 16.7796 25.371 16.3808 25.5976 16.0416C25.8242 15.7025 26.1463 15.4381 26.5232 15.282C26.9001 15.1259 27.3148 15.085 27.7149 15.1646C28.115 15.2442 28.4825 15.4406 28.7709 15.7291C29.0594 16.0175 29.2558 16.385 29.3354 16.7851C29.415 17.1852 29.3741 17.5999 29.218 17.9768C29.0619 18.3537 28.7975 18.6758 28.4584 18.9024C28.1192 19.129 27.7204 19.25 27.3125 19.25C26.7655 19.25 26.2409 19.0327 25.8541 18.6459C25.4673 18.2591 25.25 17.7345 25.25 17.1875Z" fill="black" fill-opacity="0.5"/>
</svg>
