<svg width="25" height="25" viewBox="0 0 25 25" fill="none" xmlns="http://www.w3.org/2000/svg">
<path d="M22.3306 21.5318C22.2647 21.6459 22.17 21.7406 22.056 21.8064C21.9419 21.8722 21.8126 21.9069 21.6809 21.9068H3.68087C3.54928 21.9067 3.42005 21.872 3.30614 21.8061C3.19223 21.7402 3.09766 21.6455 3.03193 21.5315C2.96619 21.4175 2.93161 21.2882 2.93164 21.1567C2.93167 21.0251 2.96633 20.8958 3.03212 20.7818C4.45993 18.3134 6.66025 16.5434 9.22806 15.7043C7.9579 14.9482 6.97107 13.796 6.41911 12.4248C5.86715 11.0535 5.78058 9.53897 6.17269 8.11374C6.5648 6.68851 7.41392 5.4314 8.58965 4.53546C9.76537 3.63952 11.2027 3.1543 12.6809 3.1543C14.1591 3.1543 15.5964 3.63952 16.7721 4.53546C17.9478 5.4314 18.7969 6.68851 19.1891 8.11374C19.5812 9.53897 19.4946 11.0535 18.9426 12.4248C18.3907 13.796 17.4038 14.9482 16.1337 15.7043C18.7015 16.5434 20.9018 18.3134 22.3296 20.7818C22.3956 20.8958 22.4304 21.0251 22.4306 21.1567C22.4307 21.2884 22.3962 21.4178 22.3306 21.5318Z" fill="white" fill-opacity="0.7"/>
</svg>
