<svg width="25" height="25" viewBox="0 0 25 25" fill="none" xmlns="http://www.w3.org/2000/svg">
<path d="M22.3306 21.5323C22.2647 21.6464 22.17 21.7411 22.056 21.8069C21.9419 21.8727 21.8126 21.9074 21.6809 21.9073H3.68087C3.54928 21.9072 3.42005 21.8724 3.30614 21.8066C3.19223 21.7407 3.09766 21.646 3.03193 21.532C2.96619 21.418 2.93161 21.2887 2.93164 21.1571C2.93167 21.0256 2.96633 20.8963 3.03212 20.7823C4.45993 18.3139 6.66025 16.5439 9.22806 15.7048C7.9579 14.9487 6.97107 13.7965 6.41911 12.4253C5.86715 11.054 5.78058 9.53946 6.17269 8.11423C6.5648 6.689 7.41392 5.43189 8.58965 4.53595C9.76537 3.64001 11.2027 3.15479 12.6809 3.15479C14.1591 3.15479 15.5964 3.64001 16.7721 4.53595C17.9478 5.43189 18.7969 6.689 19.1891 8.11423C19.5812 9.53946 19.4946 11.054 18.9426 12.4253C18.3907 13.7965 17.4038 14.9487 16.1337 15.7048C18.7015 16.5439 20.9018 18.3139 22.3296 20.7823C22.3956 20.8963 22.4304 21.0256 22.4306 21.1572C22.4307 21.2889 22.3962 21.4182 22.3306 21.5323Z" fill="#273E8E"/>
</svg>
