<svg width="81" height="81" viewBox="0 0 81 81" fill="none" xmlns="http://www.w3.org/2000/svg">
<circle cx="40.5" cy="40.5" r="40.5" fill="#0000FF" fill-opacity="0.2"/>
<g clip-path="url(#clip0_1_1430)">
<path d="M39.1076 45.4346C40.736 44.3505 41.9723 42.7712 42.6336 40.9301C43.295 39.089 43.3464 37.084 42.7801 35.2115C42.2138 33.3389 41.0599 31.6984 39.4891 30.5324C37.9183 29.3664 36.014 28.7368 34.0577 28.7368C32.1014 28.7368 30.1971 29.3664 28.6263 30.5324C27.0555 31.6984 25.9017 33.3389 25.3354 35.2115C24.7691 37.084 24.8204 39.089 25.4818 40.9301C26.1432 42.7712 27.3795 44.3505 29.0079 45.4346C26.0622 46.5203 23.5466 48.5293 21.8363 51.1618C21.7464 51.2954 21.684 51.4455 21.6527 51.6035C21.6213 51.7614 21.6216 51.924 21.6537 52.0818C21.6857 52.2396 21.7488 52.3895 21.8393 52.5227C21.9297 52.6559 22.0458 52.7698 22.1806 52.8577C22.3155 52.9457 22.4665 53.006 22.6249 53.0351C22.7832 53.0642 22.9458 53.0615 23.1031 53.0272C23.2605 52.9929 23.4094 52.9277 23.5413 52.8353C23.6732 52.743 23.7854 52.6253 23.8715 52.4892C24.9747 50.7924 26.4842 49.3981 28.2631 48.4329C30.042 47.4677 32.0338 46.9621 34.0577 46.9621C36.0816 46.9621 38.0734 47.4677 39.8523 48.4329C41.6312 49.3981 43.1408 50.7924 44.244 52.4892C44.4222 52.7541 44.6975 52.9382 45.0103 53.0017C45.3231 53.0652 45.6484 53.003 45.9158 52.8286C46.1832 52.6542 46.3712 52.3816 46.4392 52.0697C46.5071 51.7578 46.4496 51.4317 46.2791 51.1618C44.5688 48.5293 42.0532 46.5203 39.1076 45.4346ZM27.3752 37.853C27.3752 36.5313 27.7671 35.2393 28.5014 34.1404C29.2357 33.0415 30.2794 32.185 31.5004 31.6792C32.7215 31.1734 34.0651 31.0411 35.3614 31.2989C36.6577 31.5568 37.8484 32.1932 38.783 33.1278C39.7175 34.0623 40.354 35.253 40.6118 36.5493C40.8697 37.8456 40.7373 39.1892 40.2315 40.4103C39.7258 41.6314 38.8692 42.675 37.7703 43.4093C36.6714 44.1436 35.3794 44.5355 34.0577 44.5355C32.286 44.5335 30.5875 43.8288 29.3347 42.576C28.0819 41.3233 27.3772 39.6247 27.3752 37.853ZM59.2902 52.8431C59.0203 53.0191 58.6916 53.0807 58.3763 53.0143C58.061 52.9479 57.785 52.7591 57.609 52.4892C56.5071 50.7914 54.9977 49.3965 53.2184 48.4317C51.4392 47.4668 49.4467 46.9628 47.4227 46.9655C47.1005 46.9655 46.7914 46.8375 46.5636 46.6096C46.3357 46.3818 46.2077 46.0728 46.2077 45.7505C46.2077 45.4283 46.3357 45.1192 46.5636 44.8914C46.7914 44.6635 47.1005 44.5355 47.4227 44.5355C48.4068 44.5346 49.3786 44.3163 50.2685 43.8963C51.1585 43.4763 51.9447 42.8649 52.571 42.1058C53.1973 41.3467 53.6482 40.4586 53.8915 39.5051C54.1348 38.5515 54.1644 37.556 53.9784 36.5896C53.7923 35.6233 53.3952 34.7099 52.8152 33.9149C52.2353 33.1198 51.4869 32.4627 50.6235 31.9904C49.7601 31.5181 48.8031 31.2423 47.8208 31.1828C46.8385 31.1232 45.8552 31.2813 44.9411 31.6459C44.792 31.7103 44.6316 31.7442 44.4692 31.7456C44.3069 31.747 44.1459 31.7158 43.9958 31.6539C43.8457 31.592 43.7095 31.5006 43.5953 31.3852C43.4811 31.2698 43.3912 31.1326 43.3309 30.9819C43.2706 30.8311 43.2411 30.6698 43.2442 30.5075C43.2473 30.3451 43.2829 30.185 43.3489 30.0367C43.4149 29.8883 43.51 29.7547 43.6285 29.6438C43.747 29.5328 43.8866 29.4467 44.0389 29.3905C46.131 28.5562 48.4578 28.5262 50.5707 29.3063C52.6835 30.0863 54.4326 31.6212 55.4806 33.6148C56.5285 35.6084 56.8011 37.9195 56.2456 40.1022C55.6901 42.2848 54.346 44.1845 52.4726 45.4346C55.4182 46.5203 57.9338 48.5293 59.6441 51.1618C59.8201 51.4317 59.8817 51.7604 59.8153 52.0757C59.7489 52.391 59.5601 52.667 59.2902 52.8431Z" fill="#0000FF"/>
</g>
<defs>
<clipPath id="clip0_1_1430">
<rect width="38.88" height="38.88" fill="white" transform="translate(21.3003 21.4507)"/>
</clipPath>
</defs>
</svg>
