<svg width="21" height="19" viewBox="0 0 21 19" fill="none" xmlns="http://www.w3.org/2000/svg">
<path d="M20.3306 18.5323C20.2647 18.6464 20.17 18.7411 20.056 18.8069C19.9419 18.8727 19.8126 18.9074 19.6809 18.9073H1.68087C1.54928 18.9072 1.42005 18.8724 1.30614 18.8066C1.19223 18.7407 1.09766 18.646 1.03193 18.532C0.966194 18.418 0.931607 18.2887 0.931641 18.1571C0.931674 18.0256 0.966328 17.8963 1.03212 17.7823C2.45993 15.3139 4.66025 13.5439 7.22806 12.7048C5.9579 11.9487 4.97107 10.7965 4.41911 9.42527C3.86715 8.054 3.78058 6.53946 4.17269 5.11423C4.5648 3.689 5.41392 2.43189 6.58965 1.53595C7.76537 0.640013 9.20269 0.154785 10.6809 0.154785C12.1591 0.154785 13.5964 0.640013 14.7721 1.53595C15.9478 2.43189 16.7969 3.689 17.1891 5.11423C17.5812 6.53946 17.4946 8.054 16.9426 9.42527C16.3907 10.7965 15.4038 11.9487 14.1337 12.7048C16.7015 13.5439 18.9018 15.3139 20.3296 17.7823C20.3956 17.8963 20.4304 18.0256 20.4306 18.1572C20.4307 18.2889 20.3962 18.4182 20.3306 18.5323Z" fill="white" fill-opacity="0.7"/>
</svg>
